<svg viewBox="0 0 90 37" xmlns="http://www.w3.org/2000/svg" fill-rule="evenodd" clip-rule="evenodd" stroke-linejoin="round" stroke-miterlimit="1.414"><g fill="#58595b" fill-rule="nonzero"><path d="M19.8 12.2h16.9c.4 0 .8-.3.8-.8v-7c0-.4-.3-.8-.8-.8h-7.8c-1.7 0-3.4.7-4.5 2-2.1 2.3-5.2 5.2-5.2 5.2-.2.2-.3.5-.2.8.2.4.5.6.8.6zm5.8-5.5c.9-1 2.1-1.5 3.4-1.5h7v5.5H21.7c1.1-1 2.6-2.6 3.9-4zM40.6 12.2h19.6c.3 0 .6-.2.7-.5.1-.3 0-.6-.3-.8 0 0-4.8-3.5-7.8-5.7h-.1c-.9-.7-2-1.4-3.4-1.4h-8.9c-.4 0-.8.3-.8.8v7c.3.3.6.6 1 .6zm.8-7h8.1c.9 0 1.6.6 2.5 1.2h.1c1.8 1.3 4.3 3.1 5.9 4.3H41.4V5.2z"/><path d="M89 21.8h-1.8v-2c0-2.4-1.7-6-4.6-6.4l-16.3-2.9-7.9-5.9C54.7 1.8 52.2 0 49.3 0h-21c-3 0-5.4 1.3-8.3 4.6l-5.3 5.3h-1.5l-2.9-3.6c-.2-.2-.5-.4-.8-.4H3.4c-.5 0-1 .4-1 1v14.8H1c-.5 0-1 .4-1 1v5.1c0 .5.4 1 1 1h8.5c.6 4.3 4.3 7.6 8.8 7.6 4.5 0 8.2-3.3 8.8-7.6H61c.6 4.3 4.3 7.6 8.8 7.6 4.5 0 8.2-3.3 8.8-7.6H89c.5 0 1-.4 1-1v-5.1c-.1-.4-.5-.9-1-.9zm-3.7-1.9v2h-3.7c.3-1.3 1.6-2.4 3-2.4h.6c.1.1.1.2.1.4zM15.2 12c.3 0 .5-.1.7-.3L21.5 6c2.8-3.2 4.8-3.9 6.8-3.9h21c2.3 0 4.5 1.6 7.9 4.2l8.1 6c.1.1.3.2.4.2l16.6 2.9c1 .1 2 1.3 2.5 2.6h-.3c-2.3 0-4.2 1.7-4.5 3.9h-3.7l-.1-.1c-.1-.1-.1-.2-.2-.2l-.1-.1-.2-.2c-.1 0-.1-.1-.2-.1l-.2-.2c-.1 0-.1-.1-.2-.1l-.2-.2c-.1 0-.1-.1-.2-.1l-.2-.2c-.1 0-.1-.1-.2-.1s-.2-.1-.2-.1c-.1 0-.1-.1-.2-.1s-.2-.1-.2-.1c-.1 0-.1-.1-.2-.1s-.2-.1-.2-.1c-.1 0-.1-.1-.2-.1s-.2-.1-.2-.1c-.1 0-.1-.1-.2-.1s-.2-.1-.3-.1c-.1 0-.1 0-.2-.1-.1 0-.2 0-.3-.1-.1 0-.1 0-.2-.1-.1 0-.2 0-.3-.1h-1.7c-2.8 0-5.3 1.3-7 3.4-.1.2-.2.3-.3.5v.1c-.1.2-.2.3-.3.5 0 0 0 .1-.1.1-.1.2-.2.3-.3.5v.1c-.1.2-.2.3-.2.5-.1.2-.1.4-.2.5v.1c-.1.2-.1.4-.1.5v.1c0 .2-.1.4-.1.5v.1c0 .2-.1.4-.1.6H27.2c0-.2 0-.4-.1-.6v-.1c0-.2-.1-.4-.1-.5v-.1c0-.2-.1-.4-.1-.5v-.1c-.1-.2-.1-.4-.2-.5-.1-.2-.1-.4-.2-.5v-.1c-.1-.2-.2-.3-.3-.5 0 0 0-.1-.1-.1-.1-.2-.2-.3-.3-.5v-.1c-.1-.2-.2-.3-.3-.5-1.7-2.2-4.2-3.4-7-3.4h-1.7c-.1 0-.2 0-.3.1-.1 0-.1 0-.2.1-.1 0-.2 0-.3.1-.1 0-.1 0-.2.1-.1 0-.2.1-.3.1-.1 0-.1.1-.2.1s-.2.1-.2.1c-.1 0-.1.1-.2.1s-.2.1-.2.1c-.1 0-.1.1-.2.1s-.2.1-.2.1c-.1 0-.1.1-.2.1s-.1.1-.2.1-.1.1-.2.1-.1.1-.2.1-.1.1-.2.1l-.2.2c-.1 0-.1.1-.2.1l-.2.2c-.1 0-.1.1-.2.1l-.2.2-.1.1c-.1.1-.1.2-.2.2l-.1.1H9.8c-.4-2.2-2.3-4-4.7-4h-.3V12h10.4zM4.5 21.8v-2.5h.3c1.5 0 2.8 1.1 3.1 2.5H4.5zM4.5 8h4.7l1.6 2H4.5V8zM2 23.8h8.3v.1c0 .1-.1.2-.1.3 0 0 0 .1-.1.1 0 .1-.1.2-.1.2s0 .1-.1.1c0 .1-.1.1-.1.2v.2c0 .1 0 .1-.1.2v.2c0 .1 0 .1-.1.2v1.3H2v-3.1zm16.3 10.7c-3.8 0-6.8-2.9-6.9-6.7v-.2c0-1.5.5-3 1.4-4.2 1.3-1.7 3.3-2.7 5.5-2.7s4.1 1 5.5 2.7c.9 1.2 1.4 2.7 1.4 4.2v.2c-.2 3.8-3.2 6.7-6.9 6.7zm51.3 0c-3.8 0-6.8-2.9-6.9-6.7v-.2c0-1.5.5-3 1.4-4.2 1.3-1.7 3.3-2.7 5.5-2.7h.4c1.9.1 3.6 1 4.8 2.4l.3.3c.9 1.2 1.4 2.7 1.4 4.2v.2c-.1 3.8-3.1 6.7-6.9 6.7zM88 26.9h-9.5v-.5-.4-.2-.2c0-.1 0-.1-.1-.2v-.2c0-.1 0-.1-.1-.2v-.1c0-.1-.1-.1-.1-.2 0 0 0-.1-.1-.1 0-.1-.1-.2-.1-.2v-.1c0-.1-.1-.2-.1-.3h10.4v2.9H88z"/><path d="M18.3 23.5c-2.2 0-4.1 1.8-4.1 4.1 0 2.2 1.8 4.1 4.1 4.1 2.2 0 4.1-1.8 4.1-4.1-.1-2.2-1.9-4.1-4.1-4.1zm0 6.7c-1.4 0-2.6-1.1-2.6-2.6 0-1.4 1.1-2.6 2.6-2.6s2.6 1.1 2.6 2.6c-.1 1.4-1.2 2.6-2.6 2.6zM69.6 23.5c-2.2 0-4.1 1.8-4.1 4.1 0 2.2 1.8 4.1 4.1 4.1 2.2 0 4.1-1.8 4.1-4.1 0-2.2-1.8-4.1-4.1-4.1zm0 6.7c-1.4 0-2.6-1.1-2.6-2.6 0-1.4 1.1-2.6 2.6-2.6s2.6 1.1 2.6 2.6c0 1.4-1.1 2.6-2.6 2.6zM29.4 22c-.4 0-.8.3-.8.8 0 .4.3.8.8.8h28.8c.4 0 .8-.3.8-.8 0-.4-.3-.8-.8-.8H39.3v-6.5c0-.4-.3-.8-.8-.8-.4 0-.8.3-.8.8V22h-8.3zM52.8 8.6h-2.6c-.3 0-.5.2-.5.5s.2.5.5.5h2.6c.3 0 .5-.2.5-.5s-.2-.5-.5-.5zM47.6 8.6H45c-.3 0-.5.2-.5.5s.2.5.5.5h2.6c.3 0 .5-.2.5-.5s-.2-.5-.5-.5zM43.2 5.3c-.3 0-.5.2-.5.5v2.6c0 .3.2.5.5.5s.5-.2.5-.5V5.8c0-.3-.2-.5-.5-.5zM32.2 8.6h-2.6c-.3 0-.5.2-.5.5s.2.5.5.5h2.6c.3 0 .5-.2.5-.5s-.2-.5-.5-.5zM34.1 5.3c-.3 0-.5.2-.5.5v2.6c0 .3.2.5.5.5s.5-.2.5-.5V5.8c0-.3-.2-.5-.5-.5zM27 8.6h-.9c-.3 0-.5.2-.5.5s.2.5.5.5h.9c.3 0 .5-.2.5-.5s-.2-.5-.5-.5zM42.3 13.9c-.4 0-.8.3-.8.8 0 .4.3.8.8.8h4.4c.4 0 .8-.3.8-.8 0-.4-.3-.8-.8-.8h-4.4zM25.1 13.9h-4.4c-.4 0-.8.3-.8.8 0 .4.3.8.8.8h4.4c.4 0 .8-.3.8-.8s-.4-.8-.8-.8z"/></g></svg>
