<svg version="1.1" id="Layer_1" xmlns="http://www.w3.org/2000/svg" x="0" y="0" viewBox="0 0 90 15" xml:space="preserve"><style>.st0{fill:#fff}</style><path class="st0" d="M11.23 10.38V6.03c0-.51-.16-.89-.46-1.12-.31-.23-.66-.35-1.04-.35-.39-.01-.73.11-1.03.35-.3.23-.45.6-.45 1.12v.38c0 .07 0 .15-.01.22v1.45c0 .85-.16 1.52-.46 2-.31.48-.68.83-1.1 1.04-.45.24-.92.38-1.43.43-.4.04-.75.07-1.08.08a5.65 5.65 0 003.55 1.24c1.53 0 2.92-.61 3.95-1.59-.05-.03-.09-.07-.13-.11-.21-.2-.31-.47-.31-.79zM4.2 6.2c.15-.03.32-.06.51-.08.94-.12 1.41-.4 1.41-.83 0-.32-.17-.53-.5-.62-.32-.1-.63-.15-.91-.15-.3 0-.57.04-.8.13-.23.09-.4.25-.51.48h-.98c-.21.54-.34 1.13-.38 1.74.49-.3 1.08-.51 1.78-.62.1 0 .23-.01.38-.05zM7.31 3.37c.02.02.05.03.07.05.17-.1.32-.14.32-.14-.63-1.04.15-1.77.01-1.77-1.36 0-2.61.48-3.59 1.27.16-.01.32-.02.49-.02 1.2 0 2.1.2 2.7.61z"/><path class="st0" d="M4.17 7.76c-.38.1-.66.24-.83.41-.15.24-.22.47-.22.7 0 .32.1.58.29.77.18.18.46.26.82.26.6 0 1.07-.17 1.41-.51.34-.34.51-.81.51-1.41v-.8c-.29.15-.71.29-1.24.42l-.74.16z"/><circle cx="9.75" cy="2.52" r="1.52" fill="#5c9ead"/><g><path class="st0" d="M18.45 9.49v-.22c.61 0 .66-.29.42-.92l-.2-.45h-1.95l-.18.45c-.22.65.02.92.62.92v.22h-1.97v-.22c.61 0 .82-.43 1.01-.92l1.75-4.46h.38l1.94 4.46c.24.51.34.92.94.92v.22h-2.76zm.08-1.91l-.89-2.02-.79 2.02h1.68zM25.98 8.97c-.19.41-.47.59-.92.59-.54 0-.9-.19-1-.64-.23.34-.62.64-1.26.64-.8 0-1.38-.42-1.39-1.42v-.6c0-.5.02-.92-.59-.92V6.4c.46 0 1.18-.2 1.67-.62h.22v2.23c0 .47.14.9.68.9.49 0 .65-.42.65-.95v-.41c0-.5.02-.92-.59-.92v-.22c.46 0 1.18-.2 1.67-.62h.22v2.56c0 .38.01.66.2.71.14.04.24-.03.32-.17l.12.08zM28.72 8.68c-.21.5-.52.88-1.11.88-.64 0-1.16-.42-1.16-1.28V6.17h-.62v-.31c.79-.04 1.51-.49 1.67-1.35h.25v1.35h.85v.31h-.85v2.17c0 .38.14.48.33.52.21.03.38-.06.5-.26l.14.08zM32.95 7.68c0 1.13-.87 1.89-2.07 1.89-1.21 0-2.08-.76-2.08-1.89s.87-1.89 2.08-1.89c1.2 0 2.07.76 2.07 1.89zm-1.31-.14c-.17-.96-.55-1.53-1.04-1.44-.49.09-.65.75-.48 1.71.17.95.55 1.52 1.03 1.44.49-.09.66-.75.49-1.71zM35.31 5.03v3.32c0 .5.14.92.75.92v.22h-2.87v-.22c.62 0 .75-.42.75-.92V5.03c0-.5-.14-.92-.75-.92v-.22h2.87v.22c-.61 0-.75.42-.75.92zM41.89 9.28v.22h-2.57v-.22c.61 0 .62-.43.56-.92 0 0-.11-.73-.16-1.02-.07-.47-.13-.9-.68-.9-.48 0-.68.42-.68.96v.97c0 .5.05.92.66.92v.22h-2.63v-.22c.61 0 .69-.42.69-.92v-.82c0-.5-.08-.92-.69-.92v-.22c.46 0 1.28-.2 1.76-.62h.22v.62c.24-.34.62-.62 1.27-.62.81 0 1.24.43 1.38 1.44.11.8.15 1.13.15 1.13.06.47.11.92.72.92zM45.6 8.64c-.16.78-1.18.98-1.99.93-.66-.03-1.56-.3-1.69-.82-.12-.49.25-.94.74-.86.41.06.58.35.58.67-.24-.03-.4.14-.35.38.05.22.42.31.74.34.43.02.78-.14.81-.39.06-.42-.3-.54-.86-.83-.53-.27-1.25-.62-1.16-1.39.1-.78.89-.95 1.59-.87.52.06.64.3.71 0h.14l.08 1.24h-.19c-.15-.66-.33-.91-.75-.96-.28-.04-.48.06-.5.28-.04.31.31.46.86.76.56.31 1.42.62 1.24 1.52zM50.63 8.97c-.19.41-.47.59-.92.59-.54 0-.9-.19-1-.64-.23.34-.62.64-1.27.64-.8 0-1.38-.42-1.38-1.42v-.6c0-.5.02-.92-.59-.92V6.4c.46 0 1.18-.2 1.67-.62h.22v2.23c0 .47.14.9.68.9.49 0 .65-.42.65-.95v-.41c0-.5.02-.92-.59-.92v-.22c.46 0 1.18-.2 1.67-.62h.22v2.56c0 .38.01.66.2.71.14.04.24-.03.32-.17l.12.08zM54.64 6.87c-.19.46-.68.54-.94.44.08-.28.08-.62-.23-.73-.36-.11-.65.09-.68.45v1.33c0 .5.05.92.66.92v.22h-2.64v-.22c.62 0 .69-.42.69-.92v-.81c0-.5-.07-.92-.69-.92v-.22c.47 0 1.28-.2 1.77-.62h.22v.72c.26-.49.64-.82 1.23-.72.56.09.78.62.61 1.08zM59.15 9.25c-.14.17-.39.31-.84.31-.43 0-.94-.14-1.06-.53-.28.43-.73.53-1.13.53-.66 0-1.29-.22-1.4-.8-.11-.58.18-1.13 1.13-1.32.75-.15 1.22.01 1.13-.54-.07-.41-.22-.83-.62-.83-.5-.04-.74.46-.42.71-.19.34-.52.37-.74.26-.21-.1-.3-.33-.18-.61.19-.52.89-.65 1.35-.65 1.28 0 1.81.42 1.95 1.43.11.81.15 1.13.15 1.13.05.28.1.6.18.7.09.1.26.11.45.02.02.1.03.11.05.19zm-1.99-1c-.02-.29-.06-.58-.09-.78-.06.13-.15.17-.56.28-.34.1-.58.4-.53.81.06.37.42.59.71.51.39-.09.49-.43.47-.82zM64.9 9.28v.22h-2.57v-.22c.61 0 .62-.43.56-.92 0 0-.11-.73-.16-1.02-.07-.47-.13-.9-.68-.9-.48 0-.68.42-.68.96v.97c0 .5.05.92.66.92v.22H59.4v-.22c.61 0 .69-.42.69-.92v-.82c0-.5-.08-.92-.69-.92v-.22c.46 0 1.28-.2 1.76-.62h.22v.62c.24-.34.62-.62 1.27-.62.81 0 1.24.43 1.39 1.44.11.8.15 1.13.15 1.13.05.47.1.92.71.92zM68.75 8.35c-.26.6-.84 1.22-1.83 1.22-1.2 0-2.01-.74-2.09-1.71-.11-1.29.86-2.07 2.06-2.07 1.18 0 1.57.48 1.63.94.05.31-.06.65-.34.78-.3.14-.71.05-1.01-.36.42-.34.27-1.13-.42-1.07-.42.04-.71.5-.68 1.23.05.91.51 1.34 1.23 1.41.54.06.99-.13 1.32-.48 0 0 .13.1.13.11zM72.92 8.35c-.26.6-.84 1.22-1.83 1.22-1.21 0-2.01-.78-2.09-1.74-.11-1.29.86-2.04 2.06-2.04 1.07 0 1.79.58 1.75 1.63l-2.47.42c.19 1.03 1.74 1.16 2.44.4.01 0 .14.1.14.11zm-2.62-.83l1.31-.22c.04-.77-.14-1.27-.69-1.23-.5.05-.72.69-.62 1.45zM74.8 8.84c0 .41-.33.73-.82.73-.49 0-.82-.32-.82-.73s.33-.73.82-.73c.5 0 .82.32.82.73zM79.12 7.68c0 1.13-.87 1.89-2.07 1.89-1.21 0-2.08-.76-2.08-1.89s.87-1.89 2.08-1.89c1.2 0 2.07.76 2.07 1.89zm-1.31-.14c-.17-.96-.55-1.53-1.04-1.44-.49.09-.65.75-.48 1.71.17.95.55 1.52 1.03 1.44.49-.09.65-.75.49-1.71zM83.2 6.87c-.19.46-.68.54-.94.44.08-.28.08-.62-.23-.73-.36-.11-.65.09-.68.45v1.33c0 .5.05.92.66.92v.22h-2.64v-.22c.62 0 .69-.42.69-.92v-.81c0-.5-.07-.92-.69-.92v-.22c.47 0 1.28-.2 1.77-.62h.22v.72c.26-.49.64-.82 1.23-.72.56.09.79.62.61 1.08zM87.33 10.14c-.06 1.03-1.34 1.39-2.16 1.39-.82 0-1.91-.15-1.91-.85 0-.33.26-.5.56-.6-.33-.14-.58-.43-.5-.85.09-.46.5-.66.79-.77-.4-.26-.65-.68-.65-1.19 0-.89.74-1.49 1.76-1.49.23 0 .44.03.64.09.04-.5.22-.92.74-.98.45-.05.74.26.71.63a.58.58 0 01-.58.55c-.02-.22-.1-.47-.35-.47-.23-.01-.33.14-.31.34.55.24.9.71.9 1.33 0 .9-.74 1.5-1.76 1.5-.3 0-.59-.06-.83-.16-.1.07-.18.17-.17.3.03.29.79.27 1.14.27.68 0 2.06-.18 1.98.96zm-1.05.42c0-.17-.1-.26-.34-.26-.22 0-1.06-.04-1.57-.08a.57.57 0 00-.18.38c-.02.4.35.7 1.16.68.79-.03.93-.43.93-.72zm-1.67-3.18c.14.76.46 1.11.85 1.05.39-.06.52-.5.38-1.26-.14-.75-.48-1.1-.84-1.04-.38.06-.52.5-.39 1.25z"/></g></svg>
