<svg viewBox="0 0 991 1001" xmlns="http://www.w3.org/2000/svg" fill-rule="evenodd" clip-rule="evenodd" stroke-linejoin="round" stroke-miterlimit="1.414"><path d="M41.183 28.497l4.495-4.624 4.495 4.624-4.495 4.624-4.495-4.624z" fill="#fff" fill-rule="nonzero"/><path d="M40.284 77.17l5.394-5.549 5.393 5.549-5.393 5.55-5.394-5.55z" fill="#dedede" fill-rule="nonzero"/><path d="M39.386 125.843l6.292-6.474 6.291 6.474-6.291 6.473-6.292-6.473z" fill="#b9b9b9" fill-rule="nonzero"/><path d="M38.486 174.516l7.192-7.399 7.191 7.399-7.191 7.398-7.192-7.398z" fill="#fff" fill-rule="nonzero"/><path d="M37.588 223.188l8.09-8.323 8.089 8.323-8.089 8.324-8.09-8.324z" fill="#e6e6e6" fill-rule="nonzero"/><path d="M36.689 271.861l8.989-9.248 8.989 9.248-8.989 9.248-8.989-9.248z" fill="#f9f9f9" fill-rule="nonzero"/><path d="M35.789 320.534l9.889-10.172 9.888 10.172-9.888 10.173-9.889-10.173z" fill="#fff" fill-rule="nonzero"/><path d="M34.891 369.207l10.787-11.097 10.786 11.097-10.786 11.097-10.787-11.097z" fill="#acacac" fill-rule="nonzero"/><path d="M33.991 417.88l11.687-12.022 11.686 12.022-11.686 12.022-11.687-12.022z" fill="#efefef" fill-rule="nonzero"/><path d="M33.093 466.553l12.585-12.947 12.584 12.947L45.678 479.5l-12.585-12.947z" fill="#bfbfbf" fill-rule="nonzero"/><path d="M32.194 515.226l13.484-13.872 13.484 13.872-13.484 13.871-13.484-13.871z" fill="#efefef" fill-rule="nonzero"/><path d="M31.294 563.899l14.384-14.797 14.383 14.797-14.383 14.796-14.384-14.796z" fill="#dedede" fill-rule="nonzero"/><path d="M30.396 612.571l15.282-15.721 15.281 15.721-15.281 15.722-15.282-15.722zm-.899 48.673l16.181-16.646 16.18 16.646-16.18 16.646-16.181-16.646zm-.898 48.673l17.079-17.571 17.078 17.571-17.078 17.571-17.079-17.571zM27.7 758.59l17.978-18.496 17.978 18.496-17.978 18.496L27.7 758.59z" fill="#fff" fill-rule="nonzero"/><path d="M26.8 807.263l18.878-19.421 18.877 19.421-18.877 19.42-18.878-19.42z" fill="#c3c3c3" fill-rule="nonzero"/><path d="M25.902 855.936l19.776-20.346 19.775 20.346-19.775 20.345-19.776-20.345z" fill="#fff" fill-rule="nonzero"/><path d="M25.002 904.609l20.676-21.27 20.675 21.27-20.675 21.27-20.676-21.27z" fill="#ededed" fill-rule="nonzero"/><path d="M24.104 953.281l21.574-22.194 21.573 22.194-21.573 22.195-21.574-22.195z" fill="#fff" fill-rule="nonzero"/><path d="M88.495 28.497l4.494-4.624 4.495 4.624-4.495 4.624-4.494-4.624z" fill="#fcfcfc" fill-rule="nonzero"/><path d="M87.595 77.17l5.394-5.549 5.394 5.549-5.394 5.55-5.394-5.55z" fill="#cfcfcf" fill-rule="nonzero"/><path d="M86.697 125.843l6.292-6.474 6.292 6.474-6.292 6.473-6.292-6.473z" fill="#c6c6c6" fill-rule="nonzero"/><path d="M85.797 174.516l7.192-7.399 7.191 7.399-7.191 7.398-7.192-7.398z" fill="#fff" fill-rule="nonzero"/><path d="M84.899 223.188l8.09-8.323 8.089 8.323-8.089 8.324-8.09-8.324z" fill="#dcdcdc" fill-rule="nonzero"/><path d="M84 271.861l8.989-9.248 8.989 9.248-8.989 9.248L84 271.861z" fill="#d7d7d7" fill-rule="nonzero"/><path d="M83.1 320.534l9.889-10.172 9.888 10.172-9.888 10.173-9.889-10.173z" fill="#fff" fill-rule="nonzero"/><path d="M82.202 369.207l10.787-11.097 10.786 11.097-10.786 11.097-10.787-11.097z" fill="silver" fill-rule="nonzero"/><path d="M81.302 417.88l11.687-12.022 11.686 12.022-11.686 12.022-11.687-12.022z" fill="#b7b7b7" fill-rule="nonzero"/><path d="M80.404 466.553l12.585-12.947 12.584 12.947L92.989 479.5l-12.585-12.947zm-.899 48.673l13.484-13.872 13.484 13.872-13.484 13.871-13.484-13.871zm-.899 48.673l14.383-14.797 14.383 14.797-14.383 14.796-14.383-14.796zm-.898 48.672l15.281-15.721 15.281 15.721-15.281 15.722-15.281-15.722z" fill="#fff" fill-rule="nonzero"/><path d="M76.808 661.244l16.181-16.646 16.181 16.646-16.181 16.646-16.181-16.646z" fill="#d2d2d2" fill-rule="nonzero"/><path d="M75.91 709.917l17.079-17.571 17.079 17.571-17.079 17.571-17.079-17.571z" fill="#b7b7b7" fill-rule="nonzero"/><path d="M75.011 758.59l17.978-18.496 17.978 18.496-17.978 18.496-17.978-18.496zm-.9 48.673l18.878-19.421 18.877 19.421-18.877 19.42-18.878-19.42z" fill="#fff" fill-rule="nonzero"/><path d="M73.213 855.936l19.776-20.346 19.775 20.346-19.775 20.345-19.776-20.345z" fill="#ddd" fill-rule="nonzero"/><path d="M72.313 904.609l20.676-21.27 20.675 21.27-20.675 21.27-20.676-21.27z" fill="#c6c6c6" fill-rule="nonzero"/><path d="M71.415 953.281l21.574-22.194 21.573 22.194-21.573 22.195-21.574-22.195z" fill="#fff" fill-rule="nonzero"/><path d="M135.806 28.497l4.494-4.624 4.495 4.624-4.495 4.624-4.494-4.624z" fill="#f1f1f1" fill-rule="nonzero"/><path d="M134.907 77.17l5.393-5.549 5.394 5.549-5.394 5.55-5.393-5.55z" fill="#eaeaea" fill-rule="nonzero"/><path d="M134.008 125.843l6.292-6.474 6.293 6.474-6.293 6.473-6.292-6.473z" fill="#bdbdbd" fill-rule="nonzero"/><path d="M133.109 174.516l7.191-7.399 7.192 7.399-7.192 7.398-7.191-7.398z" fill="#f6f6f6" fill-rule="nonzero"/><path d="M132.21 223.188l8.09-8.323 8.091 8.323-8.091 8.324-8.09-8.324z" fill="#cfcfcf" fill-rule="nonzero"/><path d="M131.311 271.861l8.989-9.248 8.989 9.248-8.989 9.248-8.989-9.248z" fill="#e9e9e9" fill-rule="nonzero"/><path d="M130.412 320.534l9.888-10.172 9.888 10.172-9.888 10.173-9.888-10.173z" fill="#d2d2d2" fill-rule="nonzero"/><path d="M129.513 369.207L140.3 358.11l10.787 11.097-10.787 11.097-10.787-11.097z" fill="#bfbfbf" fill-rule="nonzero"/><path d="M128.614 417.88l11.686-12.022 11.686 12.022-11.686 12.022-11.686-12.022z" fill="#b4b4b4" fill-rule="nonzero"/><path d="M127.716 466.553l12.584-12.947 12.585 12.947L140.3 479.5l-12.584-12.947zm-.899 48.673l13.483-13.872 13.484 13.872-13.484 13.871-13.483-13.871z" fill="#fff" fill-rule="nonzero"/><path d="M125.918 563.899l14.382-14.797 14.383 14.797-14.383 14.796-14.382-14.796z" fill="#d9d9d9" fill-rule="nonzero"/><path d="M125.019 612.571L140.3 596.85l15.282 15.721-15.282 15.722-15.281-15.722z" fill="#f2f2f2" fill-rule="nonzero"/><path d="M124.12 661.244l16.18-16.646 16.181 16.646L140.3 677.89l-16.18-16.646z" fill="#acacac" fill-rule="nonzero"/><path d="M123.221 709.917l17.079-17.571 17.08 17.571-17.08 17.571-17.079-17.571zm-.899 48.673l17.978-18.496 17.979 18.496-17.979 18.496-17.978-18.496z" fill="#fff" fill-rule="nonzero"/><path d="M121.423 807.263l18.877-19.421 18.878 19.421-18.878 19.42-18.877-19.42z" fill="#bababa" fill-rule="nonzero"/><path d="M120.524 855.936L140.3 835.59l19.776 20.346-19.776 20.345-19.776-20.345z" fill="#fbfbfb" fill-rule="nonzero"/><path d="M119.625 904.609l20.675-21.27 20.675 21.27-20.675 21.27-20.675-21.27z" fill="#efefef" fill-rule="nonzero"/><path d="M118.726 953.281l21.574-22.194 21.574 22.194-21.574 22.195-21.574-22.195z" fill="#fff" fill-rule="nonzero"/><path d="M183.117 28.497l4.495-4.624 4.494 4.624-4.494 4.624-4.495-4.624z" fill="#d5d5d5" fill-rule="nonzero"/><path d="M182.218 77.17l5.394-5.549 5.393 5.549-5.393 5.55-5.394-5.55z" fill="#f1f1f1" fill-rule="nonzero"/><path d="M181.319 125.843l6.293-6.474 6.292 6.474-6.292 6.473-6.293-6.473z" fill="#e2e2e2" fill-rule="nonzero"/><path d="M180.42 174.516l7.192-7.399 7.191 7.399-7.191 7.398-7.192-7.398z" fill="#fff" fill-rule="nonzero"/><path d="M179.521 223.188l8.091-8.323 8.09 8.323-8.09 8.324-8.091-8.324z" fill="#e8e8e8" fill-rule="nonzero"/><path d="M178.622 271.861l8.99-9.248 8.989 9.248-8.989 9.248-8.99-9.248z" fill="#b8b8b8" fill-rule="nonzero"/><path d="M177.723 320.534l9.889-10.172 9.888 10.172-9.888 10.173-9.889-10.173z" fill="#e1e1e1" fill-rule="nonzero"/><path d="M176.825 369.207l10.787-11.097 10.786 11.097-10.786 11.097-10.787-11.097z" fill="#fbfbfb" fill-rule="nonzero"/><path d="M175.926 417.88l11.686-12.022 11.685 12.022-11.685 12.022-11.686-12.022z" fill="#d1d1d1" fill-rule="nonzero"/><path d="M175.027 466.553l12.585-12.947 12.584 12.947-12.584 12.947-12.585-12.947z" fill="#b2b2b2" fill-rule="nonzero"/><path d="M174.128 515.226l13.484-13.872 13.483 13.872-13.483 13.871-13.484-13.871z" fill="#adadad" fill-rule="nonzero"/><path d="M173.229 563.899l14.383-14.797 14.382 14.797-14.382 14.796-14.383-14.796z" fill="#d1d1d1" fill-rule="nonzero"/><path d="M172.33 612.571l15.282-15.721 15.281 15.721-15.281 15.722-15.282-15.722zm-.899 48.673l16.181-16.646 16.18 16.646-16.18 16.646-16.181-16.646z" fill="#fff" fill-rule="nonzero"/><path d="M170.532 709.917l17.08-17.571 17.079 17.571-17.079 17.571-17.08-17.571z" fill="#b8b8b8" fill-rule="nonzero"/><path d="M169.633 758.59l17.979-18.496 17.978 18.496-17.978 18.496-17.979-18.496z" fill="#fff" fill-rule="nonzero"/><path d="M168.734 807.263l18.878-19.421 18.877 19.421-18.877 19.42-18.878-19.42z" fill="#c9c9c9" fill-rule="nonzero"/><path d="M167.835 855.936l19.777-20.346 19.776 20.346-19.776 20.345-19.777-20.345z" fill="#bbb" fill-rule="nonzero"/><path d="M166.937 904.609l20.675-21.27 20.675 21.27-20.675 21.27-20.675-21.27z" fill="#c3c3c3" fill-rule="nonzero"/><path d="M166.038 953.281l21.574-22.194 21.573 22.194-21.573 22.195-21.574-22.195z" fill="#e4e4e4" fill-rule="nonzero"/><path d="M230.428 28.497l4.495-4.624 4.494 4.624-4.494 4.624-4.495-4.624z" fill="#d0d0d0" fill-rule="nonzero"/><path d="M229.529 77.17l5.394-5.549 5.393 5.549-5.393 5.55-5.394-5.55z" fill="#e0e0e0" fill-rule="nonzero"/><path d="M228.63 125.843l6.293-6.474 6.292 6.474-6.292 6.473-6.293-6.473z" fill="#ccc" fill-rule="nonzero"/><path d="M227.731 174.516l7.192-7.399 7.191 7.399-7.191 7.398-7.192-7.398z" fill="#fcfcfc" fill-rule="nonzero"/><path d="M226.832 223.188l8.091-8.323 8.09 8.323-8.09 8.324-8.091-8.324z" fill="#fff" fill-rule="nonzero"/><path d="M225.934 271.861l8.989-9.248 8.989 9.248-8.989 9.248-8.989-9.248z" fill="#efefef" fill-rule="nonzero"/><path d="M225.035 320.534l9.888-10.172 9.888 10.172-9.888 10.173-9.888-10.173zm-.899 48.673l10.787-11.097 10.787 11.097-10.787 11.097-10.787-11.097z" fill="#fff" fill-rule="nonzero"/><path d="M223.237 417.88l11.686-12.022 11.686 12.022-11.686 12.022-11.686-12.022z" fill="#c4c4c4" fill-rule="nonzero"/><path d="M222.338 466.553l12.585-12.947 12.584 12.947-12.584 12.947-12.585-12.947zm-.899 48.673l13.484-13.872 13.483 13.872-13.483 13.871-13.484-13.871z" fill="#fff" fill-rule="nonzero"/><path d="M220.54 563.899l14.383-14.797 14.382 14.797-14.382 14.796-14.383-14.796z" fill="#d3d3d3" fill-rule="nonzero"/><path d="M219.641 612.571l15.282-15.721 15.281 15.721-15.281 15.722-15.282-15.722z" fill="#fff" fill-rule="nonzero"/><path d="M218.742 661.244l16.181-16.646 16.18 16.646-16.18 16.646-16.181-16.646z" fill="#bcbcbc" fill-rule="nonzero"/><path d="M217.843 709.917l17.08-17.571 17.079 17.571-17.079 17.571-17.08-17.571z" fill="#e9e9e9" fill-rule="nonzero"/><path d="M216.944 758.59l17.979-18.496 17.978 18.496-17.978 18.496-17.979-18.496z" fill="#e2e2e2" fill-rule="nonzero"/><path d="M216.046 807.263l18.877-19.421 18.877 19.421-18.877 19.42-18.877-19.42z" fill="#e0e0e0" fill-rule="nonzero"/><path d="M215.147 855.936l19.776-20.346 19.776 20.346-19.776 20.345-19.776-20.345z" fill="#fff" fill-rule="nonzero"/><path d="M214.248 904.609l20.675-21.27 20.675 21.27-20.675 21.27-20.675-21.27z" fill="#c2c2c2" fill-rule="nonzero"/><path d="M213.349 953.281l21.574-22.194 21.574 22.194-21.574 22.195-21.574-22.195z" fill="#ddd" fill-rule="nonzero"/><path d="M277.739 28.497l4.495-4.624 4.494 4.624-4.494 4.624-4.495-4.624z" fill="#cfcfcf" fill-rule="nonzero"/><path d="M276.84 77.17l5.394-5.549 5.393 5.549-5.393 5.55-5.394-5.55z" fill="#eee" fill-rule="nonzero"/><path d="M275.941 125.843l6.293-6.474 6.292 6.474-6.292 6.473-6.293-6.473z" fill="#bfbfbf" fill-rule="nonzero"/><path d="M275.043 174.516l7.191-7.399 7.191 7.399-7.191 7.398-7.191-7.398zm-.899 48.672l8.09-8.323 8.09 8.323-8.09 8.324-8.09-8.324zm-.899 48.673l8.989-9.248 8.989 9.248-8.989 9.248-8.989-9.248z" fill="#fff" fill-rule="nonzero"/><path d="M272.346 320.534l9.888-10.172 9.888 10.172-9.888 10.173-9.888-10.173z" fill="#dedede" fill-rule="nonzero"/><path d="M271.447 369.207l10.787-11.097 10.787 11.097-10.787 11.097-10.787-11.097z" fill="#fbfbfb" fill-rule="nonzero"/><path d="M270.548 417.88l11.686-12.022 11.686 12.022-11.686 12.022-11.686-12.022z" fill="#eee" fill-rule="nonzero"/><path d="M269.649 466.553l12.585-12.947 12.585 12.947-12.585 12.947-12.585-12.947z" fill="#f3f3f3" fill-rule="nonzero"/><path d="M268.75 515.226l13.484-13.872 13.484 13.872-13.484 13.871-13.484-13.871z" fill="#e0e0e0" fill-rule="nonzero"/><path d="M267.85 563.899l14.384-14.797 14.382 14.797-14.382 14.796-14.384-14.796z" fill="#fafafa" fill-rule="nonzero"/><path d="M266.952 612.571l15.282-15.721 15.281 15.721-15.281 15.722-15.282-15.722z" fill="#fff" fill-rule="nonzero"/><path d="M266.053 661.244l16.181-16.646 16.18 16.646-16.18 16.646-16.181-16.646z" fill="#b0b0b0" fill-rule="nonzero"/><path d="M265.155 709.917l17.079-17.571 17.079 17.571-17.079 17.571-17.079-17.571z" fill="#c2c2c2" fill-rule="nonzero"/><path d="M264.256 758.59l17.978-18.496 17.978 18.496-17.978 18.496-17.978-18.496z" fill="#fff" fill-rule="nonzero"/><path d="M263.357 807.263l18.877-19.421 18.877 19.421-18.877 19.42-18.877-19.42z" fill="#ececec" fill-rule="nonzero"/><path d="M262.458 855.936l19.776-20.346 19.776 20.346-19.776 20.345-19.776-20.345z" fill="#aeaeae" fill-rule="nonzero"/><path d="M261.559 904.609l20.675-21.27 20.675 21.27-20.675 21.27-20.675-21.27z" fill="#bbb" fill-rule="nonzero"/><path d="M260.66 953.281l21.574-22.194 21.574 22.194-21.574 22.195-21.574-22.195z" fill="#fff" fill-rule="nonzero"/><path d="M325.05 28.497l4.495-4.624 4.495 4.624-4.495 4.624-4.495-4.624z" fill="#fafafa" fill-rule="nonzero"/><path d="M324.152 77.17l5.393-5.549 5.394 5.549-5.394 5.55-5.393-5.55z" fill="#fff" fill-rule="nonzero"/><path d="M323.253 125.843l6.292-6.474 6.292 6.474-6.292 6.473-6.292-6.473z" fill="#c7c7c7" fill-rule="nonzero"/><path d="M322.354 174.516l7.191-7.399 7.191 7.399-7.191 7.398-7.191-7.398zm-.899 48.672l8.09-8.323 8.09 8.323-8.09 8.324-8.09-8.324z" fill="#fff" fill-rule="nonzero"/><path d="M320.556 271.861l8.989-9.248 8.989 9.248-8.989 9.248-8.989-9.248z" fill="#ececec" fill-rule="nonzero"/><path d="M319.657 320.534l9.888-10.172 9.888 10.172-9.888 10.173-9.888-10.173z" fill="#fff" fill-rule="nonzero"/><path d="M318.758 369.207l10.787-11.097 10.787 11.097-10.787 11.097-10.787-11.097z" fill="#b7b7b7" fill-rule="nonzero"/><path d="M317.859 417.88l11.686-12.022 11.686 12.022-11.686 12.022-11.686-12.022z" fill="#fff" fill-rule="nonzero"/><path d="M316.96 466.553l12.585-12.947 12.585 12.947-12.585 12.947-12.585-12.947z" fill="#cdcdcd" fill-rule="nonzero"/><path d="M316.061 515.226l13.484-13.872 13.484 13.872-13.484 13.871-13.484-13.871z" fill="#cecece" fill-rule="nonzero"/><path d="M315.162 563.899l14.383-14.797 14.383 14.797-14.383 14.796-14.383-14.796z" fill="#afafaf" fill-rule="nonzero"/><path d="M314.264 612.571l15.281-15.721 15.282 15.721-15.282 15.722-15.281-15.722z" fill="#f8f8f8" fill-rule="nonzero"/><path d="M313.365 661.244l16.18-16.646 16.18 16.646-16.18 16.646-16.18-16.646z" fill="#fff" fill-rule="nonzero"/><path d="M312.466 709.917l17.079-17.571 17.079 17.571-17.079 17.571-17.079-17.571z" fill="#fdfdfd" fill-rule="nonzero"/><path d="M311.567 758.59l17.978-18.496 17.978 18.496-17.978 18.496-17.978-18.496z" fill="#bcbcbc" fill-rule="nonzero"/><path d="M310.668 807.263l18.877-19.421 18.877 19.421-18.877 19.42-18.877-19.42zm-.899 48.673l19.776-20.346 19.776 20.346-19.776 20.345-19.776-20.345z" fill="#fff" fill-rule="nonzero"/><path d="M308.87 904.609l20.675-21.27 20.675 21.27-20.675 21.27-20.675-21.27z" fill="#bbb" fill-rule="nonzero"/><path d="M307.971 953.281l21.574-22.194 21.574 22.194-21.574 22.195-21.574-22.195z" fill="#e7e7e7" fill-rule="nonzero"/><path d="M372.362 28.497l4.494-4.624 4.495 4.624-4.495 4.624-4.494-4.624z" fill="#cacaca" fill-rule="nonzero"/><path d="M371.463 77.17l5.393-5.549 5.394 5.549-5.394 5.55-5.393-5.55z" fill="#fff" fill-rule="nonzero"/><path d="M370.564 125.843l6.292-6.474 6.293 6.474-6.293 6.473-6.292-6.473z" fill="#b4b4b4" fill-rule="nonzero"/><path d="M369.665 174.516l7.191-7.399 7.192 7.399-7.192 7.398-7.191-7.398zm-.899 48.672l8.09-8.323 8.09 8.323-8.09 8.324-8.09-8.324z" fill="#fff" fill-rule="nonzero"/><path d="M367.867 271.861l8.989-9.248 8.989 9.248-8.989 9.248-8.989-9.248z" fill="#e6e6e6" fill-rule="nonzero"/><path d="M366.968 320.534l9.888-10.172 9.888 10.172-9.888 10.173-9.888-10.173z" fill="#e5e5e5" fill-rule="nonzero"/><path d="M366.069 369.207l10.787-11.097 10.787 11.097-10.787 11.097-10.787-11.097z" fill="#fff" fill-rule="nonzero"/><path d="M365.17 417.88l11.686-12.022 11.686 12.022-11.686 12.022-11.686-12.022z" fill="#f1f1f1" fill-rule="nonzero"/><path d="M364.271 466.553l12.585-12.947 12.585 12.947-12.585 12.947-12.585-12.947z" fill="#d4d4d4" fill-rule="nonzero"/><path d="M363.373 515.226l13.483-13.872 13.484 13.872-13.484 13.871-13.483-13.871z" fill="#fff" fill-rule="nonzero"/><path d="M362.474 563.899l14.382-14.797 14.383 14.797-14.383 14.796-14.382-14.796z" fill="#f6f6f6" fill-rule="nonzero"/><path d="M361.575 612.571l15.281-15.721 15.282 15.721-15.282 15.722-15.281-15.722z" fill="#e7e7e7" fill-rule="nonzero"/><path d="M360.676 661.244l16.18-16.646 16.181 16.646-16.181 16.646-16.18-16.646z" fill="#fff" fill-rule="nonzero"/><path d="M359.777 709.917l17.079-17.571 17.08 17.571-17.08 17.571-17.079-17.571z" fill="#bababa" fill-rule="nonzero"/><path d="M358.878 758.59l17.978-18.496 17.978 18.496-17.978 18.496-17.978-18.496z" fill="#acacac" fill-rule="nonzero"/><path d="M357.979 807.263l18.877-19.421 18.877 19.421-18.877 19.42-18.877-19.42z" fill="#d8d8d8" fill-rule="nonzero"/><path d="M357.08 855.936l19.776-20.346 19.776 20.346-19.776 20.345-19.776-20.345zm-.899 48.673l20.675-21.27 20.675 21.27-20.675 21.27-20.675-21.27z" fill="#fff" fill-rule="nonzero"/><path d="M355.282 953.281l21.574-22.194 21.574 22.194-21.574 22.195-21.574-22.195z" fill="#f1f1f1" fill-rule="nonzero"/><path d="M419.673 28.497l4.494-4.624 4.495 4.624-4.495 4.624-4.494-4.624z" fill="#dedede" fill-rule="nonzero"/><path d="M418.774 77.17l5.393-5.549 5.394 5.549-5.394 5.55-5.393-5.55z" fill="#fcfcfc" fill-rule="nonzero"/><path d="M417.875 125.843l6.292-6.474 6.293 6.474-6.293 6.473-6.292-6.473z" fill="#fff" fill-rule="nonzero"/><path d="M416.976 174.516l7.191-7.399 7.192 7.399-7.192 7.398-7.191-7.398z" fill="#e8e8e8" fill-rule="nonzero"/><path d="M416.077 223.188l8.09-8.323 8.091 8.323-8.091 8.324-8.09-8.324z" fill="#d7d7d7" fill-rule="nonzero"/><path d="M415.178 271.861l8.989-9.248 8.99 9.248-8.99 9.248-8.989-9.248z" fill="#c4c4c4" fill-rule="nonzero"/><path d="M414.279 320.534l9.888-10.172 9.888 10.172-9.888 10.173-9.888-10.173z" fill="#f2f2f2" fill-rule="nonzero"/><path d="M413.38 369.207l10.787-11.097 10.787 11.097-10.787 11.097-10.787-11.097z" fill="#d6d6d6" fill-rule="nonzero"/><path d="M412.482 417.88l11.685-12.022 11.686 12.022-11.686 12.022-11.685-12.022z" fill="#dfdfdf" fill-rule="nonzero"/><path d="M411.583 466.553l12.584-12.947 12.585 12.947-12.585 12.947-12.584-12.947z" fill="#fff" fill-rule="nonzero"/><path d="M410.684 515.226l13.483-13.872 13.484 13.872-13.484 13.871-13.483-13.871z" fill="#c4c4c4" fill-rule="nonzero"/><path d="M409.785 563.899l14.382-14.797 14.383 14.797-14.383 14.796-14.382-14.796z" fill="#c5c5c5" fill-rule="nonzero"/><path d="M408.886 612.571l15.281-15.721 15.282 15.721-15.282 15.722-15.281-15.722z" fill="#d3d3d3" fill-rule="nonzero"/><path d="M407.987 661.244l16.18-16.646 16.181 16.646-16.181 16.646-16.18-16.646z" fill="#c2c2c2" fill-rule="nonzero"/><path d="M407.088 709.917l17.079-17.571 17.08 17.571-17.08 17.571-17.079-17.571z" fill="#b4b4b4" fill-rule="nonzero"/><path d="M406.189 758.59l17.978-18.496 17.979 18.496-17.979 18.496-17.978-18.496z" fill="#fbfbfb" fill-rule="nonzero"/><path d="M405.29 807.263l18.877-19.421 18.878 19.421-18.878 19.42-18.877-19.42z" fill="#cdcdcd" fill-rule="nonzero"/><path d="M404.391 855.936l19.776-20.346 19.776 20.346-19.776 20.345-19.776-20.345z" fill="#fff" fill-rule="nonzero"/><path d="M403.492 904.609l20.675-21.27 20.675 21.27-20.675 21.27-20.675-21.27z" fill="#bfbfbf" fill-rule="nonzero"/><path d="M402.594 953.281l21.573-22.194 21.574 22.194-21.574 22.195-21.573-22.195z" fill="#fff" fill-rule="nonzero"/><path d="M466.984 28.497l4.495-4.624 4.494 4.624-4.494 4.624-4.495-4.624z" fill="#acacac" fill-rule="nonzero"/><path d="M466.085 77.17l5.394-5.549 5.393 5.549-5.393 5.55-5.394-5.55z" fill="#ebebeb" fill-rule="nonzero"/><path d="M465.186 125.843l6.293-6.474 6.292 6.474-6.292 6.473-6.293-6.473z" fill="#fff" fill-rule="nonzero"/><path d="M464.287 174.516l7.192-7.399 7.191 7.399-7.191 7.398-7.192-7.398z" fill="#cecece" fill-rule="nonzero"/><path d="M463.388 223.188l8.091-8.323 8.09 8.323-8.09 8.324-8.091-8.324z" fill="#fff" fill-rule="nonzero"/><path d="M462.489 271.861l8.99-9.248 8.989 9.248-8.989 9.248-8.99-9.248z" fill="#f8f8f8" fill-rule="nonzero"/><path d="M461.591 320.534l9.888-10.172 9.888 10.172-9.888 10.173-9.888-10.173z" fill="#d9d9d9" fill-rule="nonzero"/><path d="M460.692 369.207l10.787-11.097 10.787 11.097-10.787 11.097-10.787-11.097z" fill="#bdbdbd" fill-rule="nonzero"/><path d="M459.793 417.88l11.686-12.022 11.685 12.022-11.685 12.022-11.686-12.022z" fill="#bbb" fill-rule="nonzero"/><path d="M458.894 466.553l12.585-12.947 12.584 12.947-12.584 12.947-12.585-12.947z" fill="#adadad" fill-rule="nonzero"/><path d="M457.995 515.226l13.484-13.872 13.483 13.872-13.483 13.871-13.484-13.871zm-.899 48.673l14.383-14.797 14.382 14.797-14.382 14.796-14.383-14.796z" fill="#fff" fill-rule="nonzero"/><path d="M456.197 612.571l15.282-15.721 15.281 15.721-15.281 15.722-15.282-15.722z" fill="#e4e4e4" fill-rule="nonzero"/><path d="M455.298 661.244l16.181-16.646 16.18 16.646-16.18 16.646-16.181-16.646z" fill="#fff" fill-rule="nonzero"/><path d="M454.399 709.917l17.08-17.571 17.079 17.571-17.079 17.571-17.08-17.571z" fill="#f6f6f6" fill-rule="nonzero"/><path d="M453.5 758.59l17.979-18.496 17.978 18.496-17.978 18.496L453.5 758.59z" fill="#fff" fill-rule="nonzero"/><path d="M452.601 807.263l18.878-19.421 18.877 19.421-18.877 19.42-18.878-19.42z" fill="#e3e3e3" fill-rule="nonzero"/><path d="M451.703 855.936l19.776-20.346 19.776 20.346-19.776 20.345-19.776-20.345z" fill="#d4d4d4" fill-rule="nonzero"/><path d="M450.804 904.609l20.675-21.27 20.675 21.27-20.675 21.27-20.675-21.27z" fill="#fff" fill-rule="nonzero"/><path d="M449.905 953.281l21.574-22.194 21.573 22.194-21.573 22.195-21.574-22.195z" fill="#e1e1e1" fill-rule="nonzero"/><path d="M514.295 28.497l4.495-4.624 4.494 4.624-4.494 4.624-4.495-4.624z" fill="#d3d3d3" fill-rule="nonzero"/><path d="M513.396 77.17l5.394-5.549 5.393 5.549-5.393 5.55-5.394-5.55z" fill="#e8e8e8" fill-rule="nonzero"/><path d="M512.496 125.843l6.294-6.474 6.292 6.474-6.292 6.473-6.294-6.473z" fill="#f9f9f9" fill-rule="nonzero"/><path d="M511.598 174.516l7.192-7.399 7.191 7.399-7.191 7.398-7.192-7.398zm-.898 48.672l8.09-8.323 8.09 8.323-8.09 8.324-8.09-8.324z" fill="#fff" fill-rule="nonzero"/><path d="M509.801 271.861l8.989-9.248 8.989 9.248-8.989 9.248-8.989-9.248z" fill="#cfcfcf" fill-rule="nonzero"/><path d="M508.902 320.534l9.888-10.172 9.888 10.172-9.888 10.173-9.888-10.173z" fill="#e0e0e0" fill-rule="nonzero"/><path d="M508.002 369.207l10.788-11.097 10.787 11.097-10.787 11.097-10.788-11.097z" fill="#e5e5e5" fill-rule="nonzero"/><path d="M507.104 417.88l11.686-12.022 11.686 12.022-11.686 12.022-11.686-12.022z" fill="#aeaeae" fill-rule="nonzero"/><path d="M506.205 466.553l12.585-12.947 12.585 12.947L518.79 479.5l-12.585-12.947z" fill="#b2b2b2" fill-rule="nonzero"/><path d="M505.306 515.226l13.484-13.872 13.483 13.872-13.483 13.871-13.484-13.871z" fill="#c4c4c4" fill-rule="nonzero"/><path d="M504.407 563.899l14.383-14.797 14.382 14.797-14.382 14.796-14.383-14.796z" fill="#f6f6f6" fill-rule="nonzero"/><path d="M503.508 612.571l15.282-15.721 15.281 15.721-15.281 15.722-15.282-15.722z" fill="#fff" fill-rule="nonzero"/><path d="M502.609 661.244l16.181-16.646 16.18 16.646-16.18 16.646-16.181-16.646z" fill="#f4f4f4" fill-rule="nonzero"/><path d="M501.71 709.917l17.08-17.571 17.079 17.571-17.079 17.571-17.08-17.571z" fill="#dcdcdc" fill-rule="nonzero"/><path d="M500.812 758.59l17.978-18.496 17.978 18.496-17.978 18.496-17.978-18.496z" fill="#fff" fill-rule="nonzero"/><path d="M499.913 807.263l18.877-19.421 18.877 19.421-18.877 19.42-18.877-19.42z" fill="#cfcfcf" fill-rule="nonzero"/><path d="M499.014 855.936l19.776-20.346 19.776 20.346-19.776 20.345-19.776-20.345z" fill="#d3d3d3" fill-rule="nonzero"/><path d="M498.115 904.609l20.675-21.27 20.675 21.27-20.675 21.27-20.675-21.27z" fill="#afafaf" fill-rule="nonzero"/><path d="M497.216 953.281l21.574-22.194 21.574 22.194-21.574 22.195-21.574-22.195z" fill="#bfbfbf" fill-rule="nonzero"/><path d="M561.606 28.497l4.495-4.624 4.494 4.624-4.494 4.624-4.495-4.624z" fill="#cbcbcb" fill-rule="nonzero"/><path d="M560.707 77.17l5.394-5.549 5.393 5.549-5.393 5.55-5.394-5.55z" fill="#b2b2b2" fill-rule="nonzero"/><path d="M559.809 125.843l6.292-6.474 6.292 6.474-6.292 6.473-6.292-6.473z" fill="#e9e9e9" fill-rule="nonzero"/><path d="M558.91 174.516l7.191-7.399 7.191 7.399-7.191 7.398-7.191-7.398z" fill="#c6c6c6" fill-rule="nonzero"/><path d="M558.011 223.188l8.09-8.323 8.09 8.323-8.09 8.324-8.09-8.324z" fill="#fff" fill-rule="nonzero"/><path d="M557.112 271.861l8.989-9.248 8.989 9.248-8.989 9.248-8.989-9.248z" fill="#b9b9b9" fill-rule="nonzero"/><path d="M556.213 320.534l9.888-10.172 9.888 10.172-9.888 10.173-9.888-10.173z" fill="#fff" fill-rule="nonzero"/><path d="M555.314 369.207l10.787-11.097 10.787 11.097-10.787 11.097-10.787-11.097z" fill="#b9b9b9" fill-rule="nonzero"/><path d="M554.415 417.88l11.686-12.022 11.686 12.022-11.686 12.022-11.686-12.022z" fill="#fff" fill-rule="nonzero"/><path d="M553.516 466.553l12.585-12.947 12.585 12.947-12.585 12.947-12.585-12.947z" fill="#d6d6d6" fill-rule="nonzero"/><path d="M552.617 515.226l13.484-13.872 13.484 13.872-13.484 13.871-13.484-13.871z" fill="#eaeaea" fill-rule="nonzero"/><path d="M551.718 563.899l14.383-14.797 14.383 14.797-14.383 14.796-14.383-14.796z" fill="#dedede" fill-rule="nonzero"/><path d="M550.819 612.571l15.282-15.721 15.281 15.721-15.281 15.722-15.282-15.722z" fill="#f3f3f3" fill-rule="nonzero"/><path d="M549.921 661.244l16.18-16.646 16.18 16.646-16.18 16.646-16.18-16.646z" fill="#bbb" fill-rule="nonzero"/><path d="M549.022 709.917l17.079-17.571 17.079 17.571-17.079 17.571-17.079-17.571z" fill="#e5e5e5" fill-rule="nonzero"/><path d="M548.123 758.59l17.978-18.496 17.978 18.496-17.978 18.496-17.978-18.496z" fill="#c9c9c9" fill-rule="nonzero"/><path d="M547.224 807.263l18.877-19.421 18.877 19.421-18.877 19.42-18.877-19.42z" fill="#f1f1f1" fill-rule="nonzero"/><path d="M546.325 855.936l19.776-20.346 19.776 20.346-19.776 20.345-19.776-20.345z" fill="#ccc" fill-rule="nonzero"/><path d="M545.426 904.609l20.675-21.27 20.675 21.27-20.675 21.27-20.675-21.27z" fill="#c3c3c3" fill-rule="nonzero"/><path d="M544.527 953.281l21.574-22.194 21.574 22.194-21.574 22.195-21.574-22.195z" fill="#c1c1c1" fill-rule="nonzero"/><path d="M608.918 28.497l4.494-4.624 4.495 4.624-4.495 4.624-4.494-4.624zm-.899 48.673l5.393-5.549 5.394 5.549-5.394 5.55-5.393-5.55z" fill="#bcbcbc" fill-rule="nonzero"/><path d="M607.12 125.843l6.292-6.474 6.292 6.474-6.292 6.473-6.292-6.473z" fill="#f5f5f5" fill-rule="nonzero"/><path d="M606.221 174.516l7.191-7.399 7.191 7.399-7.191 7.398-7.191-7.398z" fill="#d0d0d0" fill-rule="nonzero"/><path d="M605.322 223.188l8.09-8.323 8.09 8.323-8.09 8.324-8.09-8.324z" fill="#fff" fill-rule="nonzero"/><path d="M604.423 271.861l8.989-9.248 8.989 9.248-8.989 9.248-8.989-9.248z" fill="#eee" fill-rule="nonzero"/><path d="M603.524 320.534l9.888-10.172 9.888 10.172-9.888 10.173-9.888-10.173z" fill="#c9c9c9" fill-rule="nonzero"/><path d="M602.625 369.207l10.787-11.097 10.787 11.097-10.787 11.097-10.787-11.097z" fill="#c8c8c8" fill-rule="nonzero"/><path d="M601.726 417.88l11.686-12.022 11.686 12.022-11.686 12.022-11.686-12.022z" fill="#cacaca" fill-rule="nonzero"/><path d="M600.827 466.553l12.585-12.947 12.585 12.947-12.585 12.947-12.585-12.947z" fill="#fff" fill-rule="nonzero"/><path d="M599.928 515.226l13.484-13.872 13.484 13.872-13.484 13.871-13.484-13.871z" fill="#b1b1b1" fill-rule="nonzero"/><path d="M599.03 563.899l14.382-14.797 14.383 14.797-14.383 14.796-14.382-14.796z" fill="#b2b2b2" fill-rule="nonzero"/><path d="M598.131 612.571l15.281-15.721 15.282 15.721-15.282 15.722-15.281-15.722zm-.899 48.673l16.18-16.646 16.181 16.646-16.181 16.646-16.18-16.646z" fill="#fff" fill-rule="nonzero"/><path d="M596.333 709.917l17.079-17.571 17.079 17.571-17.079 17.571-17.079-17.571z" fill="#e2e2e2" fill-rule="nonzero"/><path d="M595.434 758.59l17.978-18.496 17.978 18.496-17.978 18.496-17.978-18.496z" fill="#d5d5d5" fill-rule="nonzero"/><path d="M594.535 807.263l18.877-19.421 18.877 19.421-18.877 19.42-18.877-19.42z" fill="#fff" fill-rule="nonzero"/><path d="M593.636 855.936l19.776-20.346 19.776 20.346-19.776 20.345-19.776-20.345z" fill="#bcbcbc" fill-rule="nonzero"/><path d="M592.737 904.609l20.675-21.27 20.675 21.27-20.675 21.27-20.675-21.27z" fill="#e4e4e4" fill-rule="nonzero"/><path d="M591.838 953.281l21.574-22.194 21.574 22.194-21.574 22.195-21.574-22.195z" fill="#c6c6c6" fill-rule="nonzero"/><path d="M656.229 28.497l4.494-4.624 4.495 4.624-4.495 4.624-4.494-4.624z" fill="#fff" fill-rule="nonzero"/><path d="M655.33 77.17l5.393-5.549 5.394 5.549-5.394 5.55-5.393-5.55z" fill="#c8c8c8" fill-rule="nonzero"/><path d="M654.431 125.843l6.292-6.474 6.293 6.474-6.293 6.473-6.292-6.473z" fill="#eee" fill-rule="nonzero"/><path d="M653.532 174.516l7.191-7.399 7.192 7.399-7.192 7.398-7.191-7.398z" fill="#ccc" fill-rule="nonzero"/><path d="M652.633 223.188l8.09-8.323 8.09 8.323-8.09 8.324-8.09-8.324z" fill="#c9c9c9" fill-rule="nonzero"/><path d="M651.734 271.861l8.989-9.248 8.989 9.248-8.989 9.248-8.989-9.248z" fill="#f5f5f5" fill-rule="nonzero"/><path d="M650.835 320.534l9.888-10.172 9.888 10.172-9.888 10.173-9.888-10.173z" fill="#fcfcfc" fill-rule="nonzero"/><path d="M649.936 369.207l10.787-11.097 10.787 11.097-10.787 11.097-10.787-11.097z" fill="#f0f0f0" fill-rule="nonzero"/><path d="M649.037 417.88l11.686-12.022 11.686 12.022-11.686 12.022-11.686-12.022z" fill="#fff" fill-rule="nonzero"/><path d="M648.139 466.553l12.584-12.947 12.585 12.947-12.585 12.947-12.584-12.947z" fill="#bbb" fill-rule="nonzero"/><path d="M647.24 515.226l13.483-13.872 13.484 13.872-13.484 13.871-13.483-13.871z" fill="#d1d1d1" fill-rule="nonzero"/><path d="M646.341 563.899l14.382-14.797 14.383 14.797-14.383 14.796-14.382-14.796z" fill="#fff" fill-rule="nonzero"/><path d="M645.442 612.571l15.281-15.721 15.282 15.721-15.282 15.722-15.281-15.722z" fill="#f5f5f5" fill-rule="nonzero"/><path d="M644.543 661.244l16.18-16.646 16.181 16.646-16.181 16.646-16.18-16.646z" fill="#b8b8b8" fill-rule="nonzero"/><path d="M643.644 709.917l17.079-17.571 17.08 17.571-17.08 17.571-17.079-17.571z" fill="#ddd" fill-rule="nonzero"/><path d="M642.745 758.59l17.978-18.496 17.979 18.496-17.979 18.496-17.978-18.496z" fill="#fff" fill-rule="nonzero"/><path d="M641.846 807.263l18.877-19.421 18.877 19.421-18.877 19.42-18.877-19.42z" fill="#e5e5e5" fill-rule="nonzero"/><path d="M640.947 855.936l19.776-20.346 19.776 20.346-19.776 20.345-19.776-20.345z" fill="#d9d9d9" fill-rule="nonzero"/><path d="M640.048 904.609l20.675-21.27 20.675 21.27-20.675 21.27-20.675-21.27z" fill="#e3e3e3" fill-rule="nonzero"/><path d="M639.149 953.281l21.574-22.194 21.574 22.194-21.574 22.195-21.574-22.195z" fill="#e9e9e9" fill-rule="nonzero"/><path d="M703.54 28.497l4.494-4.624 4.495 4.624-4.495 4.624-4.494-4.624z" fill="#f1f1f1" fill-rule="nonzero"/><path d="M702.641 77.17l5.393-5.549 5.394 5.549-5.394 5.55-5.393-5.55z" fill="#d2d2d2" fill-rule="nonzero"/><path d="M701.742 125.843l6.292-6.474 6.293 6.474-6.293 6.473-6.292-6.473z" fill="#dedede" fill-rule="nonzero"/><path d="M700.843 174.516l7.191-7.399 7.192 7.399-7.192 7.398-7.191-7.398z" fill="#fff" fill-rule="nonzero"/><path d="M699.944 223.188l8.09-8.323 8.091 8.323-8.091 8.324-8.09-8.324z" fill="#f8f8f8" fill-rule="nonzero"/><path d="M699.045 271.861l8.989-9.248 8.99 9.248-8.99 9.248-8.989-9.248zm-.899 48.673l9.888-10.172 9.888 10.172-9.888 10.173-9.888-10.173z" fill="#fff" fill-rule="nonzero"/><path d="M697.248 369.207l10.786-11.097 10.787 11.097-10.787 11.097-10.786-11.097z" fill="#d6d6d6" fill-rule="nonzero"/><path d="M696.349 417.88l11.685-12.022 11.686 12.022-11.686 12.022-11.685-12.022z" fill="#fff" fill-rule="nonzero"/><path d="M695.45 466.553l12.584-12.947 12.585 12.947-12.585 12.947-12.584-12.947z" fill="#b0b0b0" fill-rule="nonzero"/><path d="M694.551 515.226l13.483-13.872 13.484 13.872-13.484 13.871-13.483-13.871z" fill="#e2e2e2" fill-rule="nonzero"/><path d="M693.652 563.899l14.382-14.797 14.383 14.797-14.383 14.796-14.382-14.796z" fill="#c5c5c5" fill-rule="nonzero"/><path d="M692.753 612.571l15.281-15.721 15.282 15.721-15.282 15.722-15.281-15.722z" fill="#afafaf" fill-rule="nonzero"/><path d="M691.854 661.244l16.18-16.646 16.181 16.646-16.181 16.646-16.18-16.646z" fill="#acacac" fill-rule="nonzero"/><path d="M690.955 709.917l17.079-17.571 17.08 17.571-17.08 17.571-17.079-17.571zm-.899 48.673l17.978-18.496 17.979 18.496-17.979 18.496-17.978-18.496z" fill="#fff" fill-rule="nonzero"/><path d="M689.157 807.263l18.877-19.421 18.878 19.421-18.878 19.42-18.877-19.42z" fill="#ccc" fill-rule="nonzero"/><path d="M688.258 855.936l19.776-20.346 19.777 20.346-19.777 20.345-19.776-20.345z" fill="#fff" fill-rule="nonzero"/><path d="M687.359 904.609l20.675-21.27 20.675 21.27-20.675 21.27-20.675-21.27z" fill="#cbcbcb" fill-rule="nonzero"/><path d="M686.461 953.281l21.573-22.194 21.574 22.194-21.574 22.195-21.573-22.195z" fill="#fff" fill-rule="nonzero"/><path d="M750.851 28.497l4.495-4.624 4.494 4.624-4.494 4.624-4.495-4.624z" fill="#d6d6d6" fill-rule="nonzero"/><path d="M749.952 77.17l5.394-5.549 5.393 5.549-5.393 5.55-5.394-5.55zm-.899 48.673l6.293-6.474 6.292 6.474-6.292 6.473-6.293-6.473z" fill="#fff" fill-rule="nonzero"/><path d="M748.154 174.516l7.192-7.399 7.191 7.399-7.191 7.398-7.192-7.398z" fill="#c2c2c2" fill-rule="nonzero"/><path d="M747.255 223.188l8.091-8.323 8.09 8.323-8.09 8.324-8.091-8.324z" fill="#e6e6e6" fill-rule="nonzero"/><path d="M746.357 271.861l8.989-9.248 8.989 9.248-8.989 9.248-8.989-9.248z" fill="#fff" fill-rule="nonzero"/><path d="M745.458 320.534l9.888-10.172 9.888 10.172-9.888 10.173-9.888-10.173z" fill="#f1f1f1" fill-rule="nonzero"/><path d="M744.559 369.207l10.787-11.097 10.787 11.097-10.787 11.097-10.787-11.097z" fill="#cdcdcd" fill-rule="nonzero"/><path d="M743.66 417.88l11.686-12.022 11.685 12.022-11.685 12.022-11.686-12.022z" fill="#dbdbdb" fill-rule="nonzero"/><path d="M742.761 466.553l12.585-12.947 12.584 12.947-12.584 12.947-12.585-12.947z" fill="#b6b6b6" fill-rule="nonzero"/><path d="M741.862 515.226l13.484-13.872 13.483 13.872-13.483 13.871-13.484-13.871z" fill="#b3b3b3" fill-rule="nonzero"/><path d="M740.963 563.899l14.383-14.797 14.382 14.797-14.382 14.796-14.383-14.796z" fill="#fcfcfc" fill-rule="nonzero"/><path d="M740.064 612.571l15.282-15.721 15.281 15.721-15.281 15.722-15.282-15.722z" fill="#cfcfcf" fill-rule="nonzero"/><path d="M739.165 661.244l16.181-16.646 16.18 16.646-16.18 16.646-16.181-16.646z" fill="#f6f6f6" fill-rule="nonzero"/><path d="M738.266 709.917l17.08-17.571 17.079 17.571-17.079 17.571-17.08-17.571z" fill="#c3c3c3" fill-rule="nonzero"/><path d="M737.367 758.59l17.979-18.496 17.978 18.496-17.978 18.496-17.979-18.496z" fill="#e2e2e2" fill-rule="nonzero"/><path d="M736.468 807.263l18.878-19.421 18.877 19.421-18.877 19.42-18.878-19.42z" fill="#fff" fill-rule="nonzero"/><path d="M735.57 855.936l19.776-20.346 19.776 20.346-19.776 20.345-19.776-20.345z" fill="#dedede" fill-rule="nonzero"/><path d="M734.671 904.609l20.675-21.27 20.675 21.27-20.675 21.27-20.675-21.27z" fill="#e1e1e1" fill-rule="nonzero"/><path d="M733.772 953.281l21.574-22.194 21.574 22.194-21.574 22.195-21.574-22.195z" fill="#c7c7c7" fill-rule="nonzero"/><path d="M798.162 28.497l4.495-4.624 4.494 4.624-4.494 4.624-4.495-4.624z" fill="#e0e0e0" fill-rule="nonzero"/><path d="M797.263 77.17l5.394-5.549 5.393 5.549-5.393 5.55-5.394-5.55zm-.899 48.673l6.293-6.474 6.292 6.474-6.292 6.473-6.293-6.473z" fill="#fff" fill-rule="nonzero"/><path d="M795.466 174.516l7.191-7.399 7.191 7.399-7.191 7.398-7.191-7.398z" fill="#b5b5b5" fill-rule="nonzero"/><path d="M794.567 223.188l8.09-8.323 8.09 8.323-8.09 8.324-8.09-8.324z" fill="#f5f5f5" fill-rule="nonzero"/><path d="M793.668 271.861l8.989-9.248 8.989 9.248-8.989 9.248-8.989-9.248z" fill="#f7f7f7" fill-rule="nonzero"/><path d="M792.769 320.534l9.888-10.172 9.888 10.172-9.888 10.173-9.888-10.173z" fill="#fff" fill-rule="nonzero"/><path d="M791.87 369.207l10.787-11.097 10.787 11.097-10.787 11.097-10.787-11.097z" fill="#f1f1f1" fill-rule="nonzero"/><path d="M790.971 417.88l11.686-12.022 11.686 12.022-11.686 12.022-11.686-12.022z" fill="#fbfbfb" fill-rule="nonzero"/><path d="M790.072 466.553l12.585-12.947 12.585 12.947-12.585 12.947-12.585-12.947z" fill="#c8c8c8" fill-rule="nonzero"/><path d="M789.173 515.226l13.484-13.872 13.483 13.872-13.483 13.871-13.484-13.871z" fill="#c5c5c5" fill-rule="nonzero"/><path d="M788.274 563.899l14.383-14.797 14.382 14.797-14.382 14.796-14.383-14.796z" fill="#fff" fill-rule="nonzero"/><path d="M787.375 612.571l15.282-15.721 15.281 15.721-15.281 15.722-15.282-15.722z" fill="#cfcfcf" fill-rule="nonzero"/><path d="M786.476 661.244l16.181-16.646 16.18 16.646-16.18 16.646-16.181-16.646z" fill="#e2e2e2" fill-rule="nonzero"/><path d="M785.577 709.917l17.08-17.571 17.079 17.571-17.079 17.571-17.08-17.571z" fill="#fdfdfd" fill-rule="nonzero"/><path d="M784.679 758.59l17.978-18.496 17.978 18.496-17.978 18.496-17.978-18.496z" fill="#e6e6e6" fill-rule="nonzero"/><path d="M783.78 807.263l18.877-19.421 18.877 19.421-18.877 19.42-18.877-19.42z" fill="#fff" fill-rule="nonzero"/><path d="M782.881 855.936l19.776-20.346 19.776 20.346-19.776 20.345-19.776-20.345z" fill="#f9f9f9" fill-rule="nonzero"/><path d="M781.982 904.609l20.675-21.27 20.675 21.27-20.675 21.27-20.675-21.27z" fill="#bcbcbc" fill-rule="nonzero"/><path d="M781.083 953.281l21.574-22.194 21.574 22.194-21.574 22.195-21.574-22.195z" fill="#f0f0f0" fill-rule="nonzero"/><path d="M845.473 28.497l4.495-4.624 4.495 4.624-4.495 4.624-4.495-4.624z" fill="#fdfdfd" fill-rule="nonzero"/><path d="M844.575 77.17l5.393-5.549 5.393 5.549-5.393 5.55-5.393-5.55z" fill="#f9f9f9" fill-rule="nonzero"/><path d="M843.676 125.843l6.292-6.474 6.292 6.474-6.292 6.473-6.292-6.473z" fill="#afafaf" fill-rule="nonzero"/><path d="M842.777 174.516l7.191-7.399 7.191 7.399-7.191 7.398-7.191-7.398z" fill="#fff" fill-rule="nonzero"/><path d="M841.878 223.188l8.09-8.323 8.09 8.323-8.09 8.324-8.09-8.324z" fill="#d9d9d9" fill-rule="nonzero"/><path d="M840.979 271.861l8.989-9.248 8.989 9.248-8.989 9.248-8.989-9.248z" fill="#fff" fill-rule="nonzero"/><path d="M840.08 320.534l9.888-10.172 9.888 10.172-9.888 10.173-9.888-10.173z" fill="#d3d3d3" fill-rule="nonzero"/><path d="M839.181 369.207l10.787-11.097 10.787 11.097-10.787 11.097-10.787-11.097z" fill="#fff" fill-rule="nonzero"/><path d="M838.282 417.88l11.686-12.022 11.686 12.022-11.686 12.022-11.686-12.022z" fill="#ebebeb" fill-rule="nonzero"/><path d="M837.383 466.553l12.585-12.947 12.585 12.947-12.585 12.947-12.585-12.947z" fill="#fff" fill-rule="nonzero"/><path d="M836.484 515.226l13.484-13.872 13.484 13.872-13.484 13.871-13.484-13.871z" fill="#e9e9e9" fill-rule="nonzero"/><path d="M835.585 563.899l14.383-14.797 14.383 14.797-14.383 14.796-14.383-14.796z" fill="#fff" fill-rule="nonzero"/><path d="M834.686 612.571l15.282-15.721 15.281 15.721-15.281 15.722-15.282-15.722z" fill="#d7d7d7" fill-rule="nonzero"/><path d="M833.788 661.244l16.18-16.646 16.18 16.646-16.18 16.646-16.18-16.646z" fill="#e3e3e3" fill-rule="nonzero"/><path d="M832.889 709.917l17.079-17.571 17.079 17.571-17.079 17.571-17.079-17.571z" fill="#ececec" fill-rule="nonzero"/><path d="M831.99 758.59l17.978-18.496 17.978 18.496-17.978 18.496-17.978-18.496z" fill="#fff" fill-rule="nonzero"/><path d="M831.091 807.263l18.877-19.421 18.877 19.421-18.877 19.42-18.877-19.42z" fill="#f2f2f2" fill-rule="nonzero"/><path d="M830.192 855.936l19.776-20.346 19.776 20.346-19.776 20.345-19.776-20.345z" fill="#bdbdbd" fill-rule="nonzero"/><path d="M829.293 904.609l20.675-21.27 20.675 21.27-20.675 21.27-20.675-21.27z" fill="#fff" fill-rule="nonzero"/><path d="M828.394 953.281l21.574-22.194 21.574 22.194-21.574 22.195-21.574-22.195z" fill="#b3b3b3" fill-rule="nonzero"/><path d="M892.785 28.497l4.494-4.624 4.495 4.624-4.495 4.624-4.494-4.624z" fill="#e0e0e0" fill-rule="nonzero"/><path d="M891.886 77.17l5.393-5.549 5.394 5.549-5.394 5.55-5.393-5.55z" fill="#d6d6d6" fill-rule="nonzero"/><path d="M890.987 125.843l6.292-6.474 6.293 6.474-6.293 6.473-6.292-6.473z" fill="#ececec" fill-rule="nonzero"/><path d="M890.088 174.516l7.191-7.399 7.191 7.399-7.191 7.398-7.191-7.398z" fill="#fff" fill-rule="nonzero"/><path d="M889.189 223.188l8.09-8.323 8.09 8.323-8.09 8.324-8.09-8.324z" fill="#f5f5f5" fill-rule="nonzero"/><path d="M888.29 271.861l8.989-9.248 8.989 9.248-8.989 9.248-8.989-9.248zm-.899 48.673l9.888-10.172 9.888 10.172-9.888 10.173-9.888-10.173z" fill="#fff" fill-rule="nonzero"/><path d="M886.492 369.207l10.787-11.097 10.787 11.097-10.787 11.097-10.787-11.097z" fill="#fdfdfd" fill-rule="nonzero"/><path d="M885.593 417.88l11.686-12.022 11.686 12.022-11.686 12.022-11.686-12.022z" fill="#d5d5d5" fill-rule="nonzero"/><path d="M884.694 466.553l12.585-12.947 12.585 12.947-12.585 12.947-12.585-12.947z" fill="#c9c9c9" fill-rule="nonzero"/><path d="M883.795 515.226l13.484-13.872 13.484 13.872-13.484 13.871-13.484-13.871z" fill="#b3b3b3" fill-rule="nonzero"/><path d="M882.897 563.899l14.382-14.797 14.383 14.797-14.383 14.796-14.382-14.796z" fill="#fff" fill-rule="nonzero"/><path d="M881.998 612.571l15.281-15.721 15.282 15.721-15.282 15.722-15.281-15.722z" fill="#d5d5d5" fill-rule="nonzero"/><path d="M881.099 661.244l16.18-16.646 16.181 16.646-16.181 16.646-16.18-16.646z" fill="#b8b8b8" fill-rule="nonzero"/><path d="M880.2 709.917l17.079-17.571 17.079 17.571-17.079 17.571-17.079-17.571z" fill="#d8d8d8" fill-rule="nonzero"/><path d="M879.301 758.59l17.978-18.496 17.978 18.496-17.978 18.496-17.978-18.496z" fill="#f5f5f5" fill-rule="nonzero"/><path d="M878.402 807.263l18.877-19.421 18.877 19.421-18.877 19.42-18.877-19.42zm-.899 48.673l19.776-20.346 19.776 20.346-19.776 20.345-19.776-20.345zm-.899 48.673l20.675-21.27 20.675 21.27-20.675 21.27-20.675-21.27z" fill="#fff" fill-rule="nonzero"/><path d="M875.705 953.281l21.574-22.194 21.574 22.194-21.574 22.195-21.574-22.195z" fill="#d8d8d8" fill-rule="nonzero"/><path d="M940.096 28.497l4.494-4.624 4.495 4.624-4.495 4.624-4.494-4.624z" fill="#ececec" fill-rule="nonzero"/><path d="M939.197 77.17l5.393-5.549 5.394 5.549-5.394 5.55-5.393-5.55z" fill="#d9d9d9" fill-rule="nonzero"/><path d="M938.298 125.843l6.292-6.474 6.293 6.474-6.293 6.473-6.292-6.473z" fill="#fff" fill-rule="nonzero"/><path d="M937.399 174.516l7.191-7.399 7.192 7.399-7.192 7.398-7.191-7.398z" fill="#f4f4f4" fill-rule="nonzero"/><path d="M936.5 223.188l8.09-8.323 8.091 8.323-8.091 8.324-8.09-8.324z" fill="#fbfbfb" fill-rule="nonzero"/><path d="M935.601 271.861l8.989-9.248 8.989 9.248-8.989 9.248-8.989-9.248z" fill="#fff" fill-rule="nonzero"/><path d="M934.702 320.534l9.888-10.172 9.888 10.172-9.888 10.173-9.888-10.173z" fill="#f9f9f9" fill-rule="nonzero"/><path d="M933.803 369.207l10.787-11.097 10.787 11.097-10.787 11.097-10.787-11.097z" fill="#dedede" fill-rule="nonzero"/><path d="M932.904 417.88l11.686-12.022 11.686 12.022-11.686 12.022-11.686-12.022z" fill="#fff" fill-rule="nonzero"/><path d="M932.006 466.553l12.584-12.947 12.585 12.947L944.59 479.5l-12.584-12.947z" fill="#eaeaea" fill-rule="nonzero"/><path d="M931.107 515.226l13.483-13.872 13.484 13.872-13.484 13.871-13.483-13.871z" fill="#dfdfdf" fill-rule="nonzero"/><path d="M930.208 563.899l14.382-14.797 14.383 14.797-14.383 14.796-14.382-14.796z" fill="#dcdcdc" fill-rule="nonzero"/><path d="M929.309 612.571l15.281-15.721 15.282 15.721-15.282 15.722-15.281-15.722z" fill="#f1f1f1" fill-rule="nonzero"/><path d="M928.41 661.244l16.18-16.646 16.181 16.646-16.181 16.646-16.18-16.646z" fill="#d5d5d5" fill-rule="nonzero"/><path d="M927.511 709.917l17.079-17.571 17.08 17.571-17.08 17.571-17.079-17.571z" fill="#c9c9c9" fill-rule="nonzero"/><path d="M926.612 758.59l17.978-18.496 17.979 18.496-17.979 18.496-17.978-18.496z" fill="#f8f8f8" fill-rule="nonzero"/><path d="M925.713 807.263l18.877-19.421 18.877 19.421-18.877 19.42-18.877-19.42z" fill="#d1d1d1" fill-rule="nonzero"/><path d="M924.814 855.936l19.776-20.346 19.776 20.346-19.776 20.345-19.776-20.345z" fill="#cfcfcf" fill-rule="nonzero"/><path d="M923.915 904.609l20.675-21.27 20.675 21.27-20.675 21.27-20.675-21.27z" fill="#eee" fill-rule="nonzero"/><path d="M923.016 953.281l21.574-22.194 21.574 22.194-21.574 22.195-21.574-22.195z" fill="#fff" fill-rule="nonzero"/><path d="M17.978 4.161L22.022 0l4.045 4.161-4.045 4.161-4.044-4.161z" fill="#d4d4d4" fill-rule="nonzero"/><path d="M17.078 52.833l4.944-5.086 4.944 5.086-4.944 5.088-4.944-5.088z" fill="#fff" fill-rule="nonzero"/><path d="M16.18 101.506l5.842-6.01 5.842 6.01-5.842 6.011-5.842-6.011z" fill="#d5d5d5" fill-rule="nonzero"/><path d="M15.281 150.179l6.741-6.936 6.742 6.936-6.742 6.936-6.741-6.936z" fill="#fff" fill-rule="nonzero"/><path d="M14.382 198.852l7.64-7.861 7.641 7.861-7.641 7.861-7.64-7.861z" fill="#dadada" fill-rule="nonzero"/><path d="M13.484 247.525l8.538-8.786 8.539 8.786-8.539 8.785-8.538-8.785z" fill="#dedede" fill-rule="nonzero"/><path d="M12.584 296.198l9.438-9.71 9.439 9.71-9.439 9.71-9.438-9.71z" fill="#b6b6b6" fill-rule="nonzero"/><path d="M11.686 344.871l10.336-10.635 10.337 10.635-10.337 10.635-10.336-10.635z" fill="#dcdcdc" fill-rule="nonzero"/><path d="M10.786 393.543l11.236-11.559 11.237 11.559-11.237 11.56-11.236-11.56z" fill="#fcfcfc" fill-rule="nonzero"/><path d="M9.887 442.216l12.135-12.484 12.136 12.484-12.136 12.485-12.135-12.485zm-.898 48.673l13.033-13.409 13.034 13.409L22.022 504.3 8.989 490.889z" fill="#fff" fill-rule="nonzero"/><path d="M8.089 539.562l13.933-14.334 13.934 14.334-13.934 14.334-13.933-14.334z" fill="#f8f8f8" fill-rule="nonzero"/><path d="M7.191 588.235l14.831-15.259 14.832 15.259-14.832 15.259-14.831-15.259z" fill="#fff" fill-rule="nonzero"/><path d="M6.291 636.908l15.731-16.184 15.731 16.184-15.731 16.184-15.731-16.184z" fill="#fbfbfb" fill-rule="nonzero"/><path d="M5.393 685.581l16.629-17.109 16.63 17.109-16.63 17.108-16.629-17.108z" fill="#fff" fill-rule="nonzero"/><path d="M4.495 734.254l17.527-18.034 17.528 18.034-17.528 18.033-17.527-18.033z" fill="#bababa" fill-rule="nonzero"/><path d="M3.595 782.926l18.427-18.958 18.428 18.958-18.428 18.959-18.427-18.959z" fill="#d5d5d5" fill-rule="nonzero"/><path d="M2.697 831.599l19.325-19.883 19.326 19.883-19.326 19.883-19.325-19.883z" fill="#dadada" fill-rule="nonzero"/><path d="M1.797 880.272l20.225-20.807 20.226 20.807-20.226 20.808-20.225-20.808z" fill="#bdbdbd" fill-rule="nonzero"/><path d="M.898 928.945l21.124-21.732 21.125 21.732-21.125 21.732L.898 928.945z" fill="#fff" fill-rule="nonzero"/><path d="M0 977.618l22.022-22.657 22.023 22.657-22.023 22.662L0 977.618z" fill="#fbfbfb" fill-rule="nonzero"/><path d="M65.288 4.161L69.334 0l4.044 4.161-4.044 4.161-4.046-4.161z" fill="#fff" fill-rule="nonzero"/><path d="M64.389 52.833l4.945-5.086 4.944 5.086-4.944 5.088-4.945-5.088z" fill="#d4d4d4" fill-rule="nonzero"/><path d="M63.491 101.506l5.843-6.01 5.842 6.01-5.842 6.011-5.843-6.011z" fill="#f6f6f6" fill-rule="nonzero"/><path d="M62.592 150.179l6.742-6.936 6.741 6.936-6.741 6.936-6.742-6.936z" fill="#b9b9b9" fill-rule="nonzero"/><path d="M61.692 198.852l7.642-7.861 7.64 7.861-7.64 7.861-7.642-7.861z" fill="#c6c6c6" fill-rule="nonzero"/><path d="M60.794 247.525l8.54-8.786 8.538 8.786-8.538 8.785-8.54-8.785z" fill="#d2d2d2" fill-rule="nonzero"/><path d="M59.894 296.198l9.44-9.71 9.438 9.71-9.438 9.71-9.44-9.71z" fill="#d6d6d6" fill-rule="nonzero"/><path d="M58.996 344.871l10.338-10.635 10.336 10.635-10.336 10.635-10.338-10.635z" fill="#d9d9d9" fill-rule="nonzero"/><path d="M58.097 393.543l11.237-11.559 11.236 11.559-11.236 11.56-11.237-11.56z" fill="#eaeaea" fill-rule="nonzero"/><path d="M57.197 442.216l12.137-12.484 12.135 12.484-12.135 12.485-12.137-12.485z" fill="#eee" fill-rule="nonzero"/><path d="M56.299 490.889l13.035-13.409 13.033 13.409L69.334 504.3l-13.035-13.411z" fill="#fdfdfd" fill-rule="nonzero"/><path d="M55.399 539.562l13.935-14.334 13.933 14.334-13.933 14.334-13.935-14.334z" fill="#fff" fill-rule="nonzero"/><path d="M54.502 588.235l14.832-15.259 14.831 15.259-14.831 15.259-14.832-15.259z" fill="#b2b2b2" fill-rule="nonzero"/><path d="M53.603 636.908l15.731-16.184 15.731 16.184-15.731 16.184-15.731-16.184z" fill="#afafaf" fill-rule="nonzero"/><path d="M52.703 685.581l16.631-17.109 16.629 17.109-16.629 17.108-16.631-17.108zm-.898 48.673l17.529-18.034 17.527 18.034-17.527 18.033-17.529-18.033z" fill="#fff" fill-rule="nonzero"/><path d="M50.905 782.926l18.429-18.958 18.427 18.958-18.427 18.959-18.429-18.959z" fill="#f5f5f5" fill-rule="nonzero"/><path d="M50.007 831.599l19.327-19.883 19.325 19.883-19.325 19.883-19.327-19.883z" fill="#c1c1c1" fill-rule="nonzero"/><path d="M49.108 880.272l20.226-20.807 20.225 20.807-20.225 20.808-20.226-20.808z" fill="#b4b4b4" fill-rule="nonzero"/><path d="M48.208 928.945l21.126-21.732 21.124 21.732-21.124 21.732-21.126-21.732z" fill="#fff" fill-rule="nonzero"/><path d="M47.31 977.618l22.024-22.657 22.022 22.657-22.022 22.662-22.024-22.662z" fill="#f4f4f4" fill-rule="nonzero"/><path d="M112.6 4.161L116.645 0l4.045 4.161-4.045 4.161-4.045-4.161z" fill="#acacac" fill-rule="nonzero"/><path d="M111.7 52.833l4.945-5.086 4.944 5.086-4.944 5.088-4.945-5.088z" fill="#fff" fill-rule="nonzero"/><path d="M110.802 101.506l5.843-6.01 5.843 6.01-5.843 6.011-5.843-6.011z" fill="#fcfcfc" fill-rule="nonzero"/><path d="M109.903 150.179l6.742-6.936 6.742 6.936-6.742 6.936-6.742-6.936zm-.9 48.673l7.642-7.861 7.641 7.861-7.641 7.861-7.642-7.861z" fill="#fff" fill-rule="nonzero"/><path d="M108.105 247.525l8.54-8.786 8.539 8.786-8.539 8.785-8.54-8.785z" fill="#e6e6e6" fill-rule="nonzero"/><path d="M107.205 296.198l9.44-9.71 9.438 9.71-9.438 9.71-9.44-9.71z" fill="#dcdcdc" fill-rule="nonzero"/><path d="M106.307 344.871l10.338-10.635 10.337 10.635-10.337 10.635-10.338-10.635z" fill="#fafafa" fill-rule="nonzero"/><path d="M105.408 393.543l11.237-11.559 11.236 11.559-11.236 11.56-11.237-11.56z" fill="#acacac" fill-rule="nonzero"/><path d="M104.508 442.216l12.137-12.484 12.135 12.484-12.135 12.485-12.137-12.485z" fill="#ccc" fill-rule="nonzero"/><path d="M103.611 490.889l13.034-13.409 13.034 13.409-13.034 13.411-13.034-13.411zm-.9 48.673l13.934-14.334 13.933 14.334-13.933 14.334-13.934-14.334z" fill="#fff" fill-rule="nonzero"/><path d="M101.813 588.235l14.832-15.259 14.832 15.259-14.832 15.259-14.832-15.259z" fill="#f4f4f4" fill-rule="nonzero"/><path d="M100.914 636.908l15.731-16.184 15.731 16.184-15.731 16.184-15.731-16.184z" fill="#fff" fill-rule="nonzero"/><path d="M100.014 685.581l16.631-17.109 16.63 17.109-16.63 17.108-16.631-17.108z" fill="#adadad" fill-rule="nonzero"/><path d="M99.116 734.254l17.529-18.034 17.529 18.034-17.529 18.033-17.529-18.033zm-.9 48.672l18.429-18.958 18.427 18.958-18.427 18.959-18.429-18.959zm-.898 48.673l19.327-19.883 19.326 19.883-19.326 19.883-19.327-19.883zm-.899 48.673l20.226-20.807 20.225 20.807-20.225 20.808-20.226-20.808z" fill="#fff" fill-rule="nonzero"/><path d="M95.519 928.945l21.126-21.732 21.124 21.732-21.124 21.732-21.126-21.732z" fill="#f6f6f6" fill-rule="nonzero"/><path d="M94.621 977.618l22.024-22.657 22.023 22.657-22.023 22.662-22.024-22.662z" fill="#fff" fill-rule="nonzero"/><path d="M159.911 4.161L163.956 0l4.045 4.161-4.045 4.161-4.045-4.161z" fill="#e8e8e8" fill-rule="nonzero"/><path d="M159.012 52.833l4.944-5.086 4.944 5.086-4.944 5.088-4.944-5.088z" fill="#e1e1e1" fill-rule="nonzero"/><path d="M158.113 101.506l5.843-6.01 5.843 6.01-5.843 6.011-5.843-6.011z" fill="#cbcbcb" fill-rule="nonzero"/><path d="M157.214 150.179l6.742-6.936 6.742 6.936-6.742 6.936-6.742-6.936z" fill="#b4b4b4" fill-rule="nonzero"/><path d="M156.315 198.852l7.641-7.861 7.641 7.861-7.641 7.861-7.641-7.861z" fill="#ebebeb" fill-rule="nonzero"/><path d="M155.416 247.525l8.54-8.786 8.54 8.786-8.54 8.785-8.54-8.785z" fill="#f1f1f1" fill-rule="nonzero"/><path d="M154.517 296.198l9.439-9.71 9.439 9.71-9.439 9.71-9.439-9.71z" fill="#fefefe" fill-rule="nonzero"/><path d="M153.618 344.871l10.338-10.635 10.337 10.635-10.337 10.635-10.338-10.635z" fill="#f8f8f8" fill-rule="nonzero"/><path d="M152.72 393.543l11.236-11.559 11.236 11.559-11.236 11.56-11.236-11.56z" fill="#f2f2f2" fill-rule="nonzero"/><path d="M151.821 442.216l12.135-12.484 12.135 12.484-12.135 12.485-12.135-12.485z" fill="#e4e4e4" fill-rule="nonzero"/><path d="M150.922 490.889l13.034-13.409 13.034 13.409-13.034 13.411-13.034-13.411z" fill="#cfcfcf" fill-rule="nonzero"/><path d="M150.023 539.562l13.933-14.334 13.933 14.334-13.933 14.334-13.933-14.334z" fill="#f7f7f7" fill-rule="nonzero"/><path d="M149.124 588.235l14.832-15.259 14.832 15.259-14.832 15.259-14.832-15.259zm-.899 48.673l15.731-16.184 15.731 16.184-15.731 16.184-15.731-16.184zm-.899 48.673l16.63-17.109 16.63 17.109-16.63 17.108-16.63-17.108z" fill="#fff" fill-rule="nonzero"/><path d="M146.427 734.254l17.529-18.034 17.529 18.034-17.529 18.033-17.529-18.033z" fill="#e8e8e8" fill-rule="nonzero"/><path d="M145.527 782.926l18.429-18.958 18.428 18.958-18.428 18.959-18.429-18.959zm-.898 48.673l19.327-19.883 19.327 19.883-19.327 19.883-19.327-19.883zm-.899 48.673l20.226-20.807 20.225 20.807-20.225 20.808-20.226-20.808z" fill="#fff" fill-rule="nonzero"/><path d="M142.831 928.945l21.125-21.732 21.124 21.732-21.124 21.732-21.125-21.732z" fill="#c7c7c7" fill-rule="nonzero"/><path d="M141.933 977.618l22.023-22.657 22.023 22.657-22.023 22.662-22.023-22.662z" fill="#e8e8e8" fill-rule="nonzero"/><path d="M207.222 4.161L211.267 0l4.045 4.161-4.045 4.161-4.045-4.161z" fill="#c9c9c9" fill-rule="nonzero"/><path d="M206.323 52.833l4.944-5.086 4.944 5.086-4.944 5.088-4.944-5.088z" fill="#fff" fill-rule="nonzero"/><path d="M205.424 101.506l5.843-6.01 5.843 6.01-5.843 6.011-5.843-6.011z" fill="#ccc" fill-rule="nonzero"/><path d="M204.525 150.179l6.742-6.936 6.742 6.936-6.742 6.936-6.742-6.936z" fill="#fefefe" fill-rule="nonzero"/><path d="M203.626 198.852l7.641-7.861 7.641 7.861-7.641 7.861-7.641-7.861z" fill="#cdcdcd" fill-rule="nonzero"/><path d="M202.727 247.525l8.54-8.786 8.54 8.786-8.54 8.785-8.54-8.785z" fill="#f1f1f1" fill-rule="nonzero"/><path d="M201.829 296.198l9.438-9.71 9.439 9.71-9.439 9.71-9.438-9.71z" fill="#f2f2f2" fill-rule="nonzero"/><path d="M200.93 344.871l10.337-10.635 10.338 10.635-10.338 10.635-10.337-10.635z" fill="#dadada" fill-rule="nonzero"/><path d="M200.031 393.543l11.236-11.559 11.237 11.559-11.237 11.56-11.236-11.56z" fill="#f8f8f8" fill-rule="nonzero"/><path d="M199.132 442.216l12.135-12.484 12.135 12.484-12.135 12.485-12.135-12.485z" fill="#f4f4f4" fill-rule="nonzero"/><path d="M198.233 490.889l13.034-13.409 13.034 13.409-13.034 13.411-13.034-13.411z" fill="#fcfcfc" fill-rule="nonzero"/><path d="M197.334 539.562l13.933-14.334 13.933 14.334-13.933 14.334-13.933-14.334z" fill="#c4c4c4" fill-rule="nonzero"/><path d="M196.435 588.235l14.832-15.259 14.832 15.259-14.832 15.259-14.832-15.259z" fill="#eee" fill-rule="nonzero"/><path d="M195.536 636.908l15.731-16.184 15.731 16.184-15.731 16.184-15.731-16.184z" fill="#d5d5d5" fill-rule="nonzero"/><path d="M194.637 685.581l16.63-17.109 16.63 17.109-16.63 17.108-16.63-17.108z" fill="#e6e6e6" fill-rule="nonzero"/><path d="M193.738 734.254l17.529-18.034 17.529 18.034-17.529 18.033-17.529-18.033z" fill="#c4c4c4" fill-rule="nonzero"/><path d="M192.839 782.926l18.428-18.958 18.428 18.958-18.428 18.959-18.428-18.959z" fill="#fff" fill-rule="nonzero"/><path d="M191.94 831.599l19.327-19.883 19.327 19.883-19.327 19.883-19.327-19.883z" fill="#f8f8f8" fill-rule="nonzero"/><path d="M191.042 880.272l20.225-20.807 20.226 20.807-20.226 20.808-20.225-20.808z" fill="#e6e6e6" fill-rule="nonzero"/><path d="M190.143 928.945l21.124-21.732 21.125 21.732-21.125 21.732-21.124-21.732z" fill="#adadad" fill-rule="nonzero"/><path d="M189.244 977.618l22.023-22.657 22.023 22.657-22.023 22.662-22.023-22.662z" fill="#dfdfdf" fill-rule="nonzero"/><path d="M254.533 4.161L258.578 0l4.045 4.161-4.045 4.161-4.045-4.161z" fill="#fff" fill-rule="nonzero"/><path d="M253.634 52.833l4.944-5.086 4.944 5.086-4.944 5.088-4.944-5.088z" fill="#f9f9f9" fill-rule="nonzero"/><path d="M252.735 101.506l5.843-6.01 5.842 6.01-5.842 6.011-5.843-6.011z" fill="#fefefe" fill-rule="nonzero"/><path d="M251.836 150.179l6.742-6.936 6.742 6.936-6.742 6.936-6.742-6.936z" fill="#d2d2d2" fill-rule="nonzero"/><path d="M250.938 198.852l7.64-7.861 7.641 7.861-7.641 7.861-7.64-7.861z" fill="#fff" fill-rule="nonzero"/><path d="M250.039 247.525l8.539-8.786 8.54 8.786-8.54 8.785-8.539-8.785z" fill="#e1e1e1" fill-rule="nonzero"/><path d="M249.14 296.198l9.438-9.71 9.439 9.71-9.439 9.71-9.438-9.71z" fill="#fff" fill-rule="nonzero"/><path d="M248.241 344.871l10.337-10.635 10.337 10.635-10.337 10.635-10.337-10.635z" fill="#f7f7f7" fill-rule="nonzero"/><path d="M247.342 393.543l11.236-11.559 11.237 11.559-11.237 11.56-11.236-11.56zm-.899 48.673l12.135-12.484 12.136 12.484-12.136 12.485-12.135-12.485z" fill="#fff" fill-rule="nonzero"/><path d="M245.544 490.889l13.034-13.409 13.035 13.409-13.035 13.411-13.034-13.411z" fill="#f5f5f5" fill-rule="nonzero"/><path d="M244.645 539.562l13.933-14.334 13.933 14.334-13.933 14.334-13.933-14.334z" fill="#b8b8b8" fill-rule="nonzero"/><path d="M243.746 588.235l14.832-15.259 14.832 15.259-14.832 15.259-14.832-15.259z" fill="#fff" fill-rule="nonzero"/><path d="M242.847 636.908l15.731-16.184 15.731 16.184-15.731 16.184-15.731-16.184z" fill="#d0d0d0" fill-rule="nonzero"/><path d="M241.948 685.581l16.63-17.109 16.63 17.109-16.63 17.108-16.63-17.108z" fill="#ececec" fill-rule="nonzero"/><path d="M241.049 734.254l17.529-18.034 17.529 18.034-17.529 18.033-17.529-18.033z" fill="#fff" fill-rule="nonzero"/><path d="M240.151 782.926l18.427-18.958 18.428 18.958-18.428 18.959-18.427-18.959z" fill="#b6b6b6" fill-rule="nonzero"/><path d="M239.252 831.599l19.326-19.883 19.327 19.883-19.327 19.883-19.326-19.883zm-.899 48.673l20.225-20.807 20.226 20.807-20.226 20.808-20.225-20.808zm-.899 48.673l21.124-21.732 21.125 21.732-21.125 21.732-21.124-21.732z" fill="#fff" fill-rule="nonzero"/><path d="M236.555 977.618l22.023-22.657 22.024 22.657-22.024 22.662-22.023-22.662z" fill="#e3e3e3" fill-rule="nonzero"/><path d="M301.844 4.161L305.889 0l4.046 4.161-4.046 4.161-4.045-4.161zm-.899 48.672l4.944-5.086 4.944 5.086-4.944 5.088-4.944-5.088z" fill="#fff" fill-rule="nonzero"/><path d="M300.047 101.506l5.842-6.01 5.843 6.01-5.843 6.011-5.842-6.011z" fill="#b3b3b3" fill-rule="nonzero"/><path d="M299.148 150.179l6.741-6.936 6.742 6.936-6.742 6.936-6.741-6.936z" fill="#d1d1d1" fill-rule="nonzero"/><path d="M298.249 198.852l7.64-7.861 7.641 7.861-7.641 7.861-7.64-7.861z" fill="#cecece" fill-rule="nonzero"/><path d="M297.35 247.525l8.539-8.786 8.54 8.786-8.54 8.785-8.539-8.785z" fill="#fff" fill-rule="nonzero"/><path d="M296.451 296.198l9.438-9.71 9.439 9.71-9.439 9.71-9.438-9.71z" fill="#cecece" fill-rule="nonzero"/><path d="M295.552 344.871l10.337-10.635 10.338 10.635-10.338 10.635-10.337-10.635z" fill="#e3e3e3" fill-rule="nonzero"/><path d="M294.653 393.543l11.236-11.559 11.237 11.559-11.237 11.56-11.236-11.56z" fill="#fff" fill-rule="nonzero"/><path d="M293.754 442.216l12.135-12.484 12.136 12.484-12.136 12.485-12.135-12.485z" fill="#cfcfcf" fill-rule="nonzero"/><path d="M292.855 490.889l13.034-13.409 13.035 13.409-13.035 13.411-13.034-13.411z" fill="#fff" fill-rule="nonzero"/><path d="M291.956 539.562l13.933-14.334 13.934 14.334-13.934 14.334-13.933-14.334z" fill="#cdcdcd" fill-rule="nonzero"/><path d="M291.057 588.235l14.832-15.259 14.833 15.259-14.833 15.259-14.832-15.259z" fill="#b1b1b1" fill-rule="nonzero"/><path d="M290.158 636.908l15.731-16.184 15.731 16.184-15.731 16.184-15.731-16.184z" fill="#e3e3e3" fill-rule="nonzero"/><path d="M289.26 685.581l16.629-17.109 16.63 17.109-16.63 17.108-16.629-17.108z" fill="#c4c4c4" fill-rule="nonzero"/><path d="M288.361 734.254l17.528-18.034 17.529 18.034-17.529 18.033-17.528-18.033z" fill="#f2f2f2" fill-rule="nonzero"/><path d="M287.462 782.926l18.427-18.958 18.428 18.958-18.428 18.959-18.427-18.959zm-.899 48.673l19.326-19.883 19.327 19.883-19.327 19.883-19.326-19.883zm-.899 48.673l20.225-20.807 20.226 20.807-20.226 20.808-20.225-20.808zm-.899 48.673l21.124-21.732 21.125 21.732-21.125 21.732-21.124-21.732zm-.899 48.673l22.023-22.657 22.024 22.657-22.024 22.662-22.023-22.662z" fill="#fff" fill-rule="nonzero"/><path d="M349.156 4.161L353.201 0l4.045 4.161-4.045 4.161-4.045-4.161z" fill="#f4f4f4" fill-rule="nonzero"/><path d="M348.257 52.833l4.944-5.086 4.944 5.086-4.944 5.088-4.944-5.088z" fill="#d2d2d2" fill-rule="nonzero"/><path d="M347.358 101.506l5.843-6.01 5.843 6.01-5.843 6.011-5.843-6.011z" fill="#f1f1f1" fill-rule="nonzero"/><path d="M346.459 150.179l6.742-6.936 6.741 6.936-6.741 6.936-6.742-6.936z" fill="#fff" fill-rule="nonzero"/><path d="M345.56 198.852l7.641-7.861 7.64 7.861-7.64 7.861-7.641-7.861z" fill="#cbcbcb" fill-rule="nonzero"/><path d="M344.661 247.525l8.54-8.786 8.539 8.786-8.539 8.785-8.54-8.785z" fill="#fff" fill-rule="nonzero"/><path d="M343.762 296.198l9.439-9.71 9.438 9.71-9.438 9.71-9.439-9.71z" fill="#e1e1e1" fill-rule="nonzero"/><path d="M342.863 344.871l10.338-10.635 10.337 10.635-10.337 10.635-10.338-10.635z" fill="#d9d9d9" fill-rule="nonzero"/><path d="M341.964 393.543l11.237-11.559 11.236 11.559-11.236 11.56-11.237-11.56z" fill="#fff" fill-rule="nonzero"/><path d="M341.065 442.216l12.136-12.484 12.135 12.484-12.135 12.485-12.136-12.485z" fill="#dcdcdc" fill-rule="nonzero"/><path d="M340.166 490.889l13.035-13.409 13.034 13.409-13.034 13.411-13.035-13.411z" fill="#c3c3c3" fill-rule="nonzero"/><path d="M339.267 539.562l13.934-14.334 13.933 14.334-13.933 14.334-13.934-14.334z" fill="#d0d0d0" fill-rule="nonzero"/><path d="M338.369 588.235l14.832-15.259 14.832 15.259-14.832 15.259-14.832-15.259z" fill="#c4c4c4" fill-rule="nonzero"/><path d="M337.47 636.908l15.731-16.184 15.731 16.184-15.731 16.184-15.731-16.184z" fill="#fff" fill-rule="nonzero"/><path d="M336.571 685.581l16.63-17.109 16.63 17.109-16.63 17.108-16.63-17.108z" fill="#bebebe" fill-rule="nonzero"/><path d="M335.672 734.254l17.529-18.034 17.528 18.034-17.528 18.033-17.529-18.033z" fill="#e2e2e2" fill-rule="nonzero"/><path d="M334.773 782.926l18.428-18.958 18.427 18.958-18.427 18.959-18.428-18.959z" fill="#c1c1c1" fill-rule="nonzero"/><path d="M333.874 831.599l19.327-19.883 19.326 19.883-19.326 19.883-19.327-19.883z" fill="#c4c4c4" fill-rule="nonzero"/><path d="M332.975 880.272l20.226-20.807 20.225 20.807-20.225 20.808-20.226-20.808z" fill="silver" fill-rule="nonzero"/><path d="M332.076 928.945l21.125-21.732 21.124 21.732-21.124 21.732-21.125-21.732z" fill="#d0d0d0" fill-rule="nonzero"/><path d="M331.177 977.618l22.024-22.657 22.023 22.657-22.023 22.662-22.024-22.662z" fill="#e1e1e1" fill-rule="nonzero"/><path d="M396.467 4.161L400.512 0l4.045 4.161-4.045 4.161-4.045-4.161z" fill="#e4e4e4" fill-rule="nonzero"/><path d="M395.568 52.833l4.944-5.086 4.944 5.086-4.944 5.088-4.944-5.088z" fill="#f1f1f1" fill-rule="nonzero"/><path d="M394.669 101.506l5.843-6.01 5.843 6.01-5.843 6.011-5.843-6.011z" fill="#fff" fill-rule="nonzero"/><path d="M393.77 150.179l6.742-6.936 6.742 6.936-6.742 6.936-6.742-6.936z" fill="#b9b9b9" fill-rule="nonzero"/><path d="M392.871 198.852l7.641-7.861 7.641 7.861-7.641 7.861-7.641-7.861z" fill="#e2e2e2" fill-rule="nonzero"/><path d="M391.972 247.525l8.54-8.786 8.539 8.786-8.539 8.785-8.54-8.785z" fill="#cbcbcb" fill-rule="nonzero"/><path d="M391.073 296.198l9.439-9.71 9.438 9.71-9.438 9.71-9.439-9.71z" fill="#e0e0e0" fill-rule="nonzero"/><path d="M390.174 344.871l10.338-10.635 10.337 10.635-10.337 10.635-10.338-10.635z" fill="#fff" fill-rule="nonzero"/><path d="M389.275 393.543l11.237-11.559 11.236 11.559-11.236 11.56-11.237-11.56z" fill="#d8d8d8" fill-rule="nonzero"/><path d="M388.376 442.216l12.136-12.484 12.135 12.484-12.135 12.485-12.136-12.485z" fill="#e9e9e9" fill-rule="nonzero"/><path d="M387.478 490.889l13.034-13.409 13.034 13.409-13.034 13.411-13.034-13.411z" fill="#c2c2c2" fill-rule="nonzero"/><path d="M386.579 539.562l13.933-14.334 13.933 14.334-13.933 14.334-13.933-14.334z" fill="#e3e3e3" fill-rule="nonzero"/><path d="M385.68 588.235l14.832-15.259 14.832 15.259-14.832 15.259-14.832-15.259z" fill="#fff" fill-rule="nonzero"/><path d="M384.781 636.908l15.731-16.184 15.731 16.184-15.731 16.184-15.731-16.184z" fill="#c6c6c6" fill-rule="nonzero"/><path d="M383.882 685.581l16.63-17.109 16.63 17.109-16.63 17.108-16.63-17.108z" fill="#e5e5e5" fill-rule="nonzero"/><path d="M382.983 734.254l17.529-18.034 17.529 18.034-17.529 18.033-17.529-18.033z" fill="#fff" fill-rule="nonzero"/><path d="M382.084 782.926l18.428-18.958 18.428 18.958-18.428 18.959-18.428-18.959z" fill="#d5d5d5" fill-rule="nonzero"/><path d="M381.185 831.599l19.327-19.883 19.326 19.883-19.326 19.883-19.327-19.883z" fill="#fefefe" fill-rule="nonzero"/><path d="M380.286 880.272l20.226-20.807 20.225 20.807-20.225 20.808-20.226-20.808z" fill="#d3d3d3" fill-rule="nonzero"/><path d="M379.387 928.945l21.125-21.732 21.124 21.732-21.124 21.732-21.125-21.732z" fill="#aeaeae" fill-rule="nonzero"/><path d="M378.488 977.618l22.024-22.657 22.023 22.657-22.023 22.662-22.024-22.662z" fill="#d6d6d6" fill-rule="nonzero"/><path d="M443.778 4.161L447.823 0l4.045 4.161-4.045 4.161-4.045-4.161z" fill="#fff" fill-rule="nonzero"/><path d="M442.879 52.833l4.944-5.086 4.944 5.086-4.944 5.088-4.944-5.088z" fill="#c1c1c1" fill-rule="nonzero"/><path d="M441.98 101.506l5.843-6.01 5.843 6.01-5.843 6.011-5.843-6.011z" fill="#e9e9e9" fill-rule="nonzero"/><path d="M441.081 150.179l6.742-6.936 6.742 6.936-6.742 6.936-6.742-6.936z" fill="#bfbfbf" fill-rule="nonzero"/><path d="M440.182 198.852l7.641-7.861 7.641 7.861-7.641 7.861-7.641-7.861z" fill="#fff" fill-rule="nonzero"/><path d="M439.283 247.525l8.54-8.786 8.54 8.786-8.54 8.785-8.54-8.785z" fill="#adadad" fill-rule="nonzero"/><path d="M438.384 296.198l9.439-9.71 9.439 9.71-9.439 9.71-9.439-9.71z" fill="#e5e5e5" fill-rule="nonzero"/><path d="M437.485 344.871l10.338-10.635 10.337 10.635-10.337 10.635-10.338-10.635z" fill="#e6e6e6" fill-rule="nonzero"/><path d="M436.587 393.543l11.236-11.559 11.236 11.559-11.236 11.56-11.236-11.56z" fill="#fff" fill-rule="nonzero"/><path d="M435.688 442.216l12.135-12.484 12.135 12.484-12.135 12.485-12.135-12.485z" fill="#ccc" fill-rule="nonzero"/><path d="M434.789 490.889l13.034-13.409 13.034 13.409-13.034 13.411-13.034-13.411z" fill="#e5e5e5" fill-rule="nonzero"/><path d="M433.89 539.562l13.933-14.334 13.933 14.334-13.933 14.334-13.933-14.334z" fill="#eee" fill-rule="nonzero"/><path d="M432.991 588.235l14.832-15.259 14.832 15.259-14.832 15.259-14.832-15.259zm-.899 48.673l15.731-16.184 15.731 16.184-15.731 16.184-15.731-16.184z" fill="#fff" fill-rule="nonzero"/><path d="M431.193 685.581l16.63-17.109 16.63 17.109-16.63 17.108-16.63-17.108z" fill="#f6f6f6" fill-rule="nonzero"/><path d="M430.294 734.254l17.529-18.034 17.529 18.034-17.529 18.033-17.529-18.033z" fill="#b7b7b7" fill-rule="nonzero"/><path d="M429.395 782.926l18.428-18.958 18.428 18.958-18.428 18.959-18.428-18.959z" fill="#fff" fill-rule="nonzero"/><path d="M428.496 831.599l19.327-19.883 19.327 19.883-19.327 19.883-19.327-19.883zm-.899 48.673l20.226-20.807 20.226 20.807-20.226 20.808-20.226-20.808z" fill="#e8e8e8" fill-rule="nonzero"/><path d="M426.699 928.945l21.124-21.732 21.124 21.732-21.124 21.732-21.124-21.732z" fill="#cfcfcf" fill-rule="nonzero"/><path d="M425.8 977.618l22.023-22.657 22.023 22.657-22.023 22.662-22.023-22.662z" fill="#c1c1c1" fill-rule="nonzero"/><path d="M491.089 4.161L495.134 0l4.045 4.161-4.045 4.161-4.045-4.161z" fill="#fff" fill-rule="nonzero"/><path d="M490.19 52.833l4.944-5.086 4.944 5.086-4.944 5.088-4.944-5.088z" fill="#c5c5c5" fill-rule="nonzero"/><path d="M489.291 101.506l5.843-6.01 5.843 6.01-5.843 6.011-5.843-6.011zm-.899 48.673l6.742-6.936 6.742 6.936-6.742 6.936-6.742-6.936z" fill="#fff" fill-rule="nonzero"/><path d="M487.493 198.852l7.641-7.861 7.641 7.861-7.641 7.861-7.641-7.861z" fill="#f8f8f8" fill-rule="nonzero"/><path d="M486.594 247.525l8.54-8.786 8.54 8.786-8.54 8.785-8.54-8.785z" fill="#d3d3d3" fill-rule="nonzero"/><path d="M485.696 296.198l9.438-9.71 9.439 9.71-9.439 9.71-9.438-9.71z" fill="#bababa" fill-rule="nonzero"/><path d="M484.797 344.871l10.337-10.635 10.338 10.635-10.338 10.635-10.337-10.635z" fill="#fff" fill-rule="nonzero"/><path d="M483.898 393.543l11.236-11.559 11.237 11.559-11.237 11.56-11.236-11.56z" fill="#f9f9f9" fill-rule="nonzero"/><path d="M482.999 442.216l12.135-12.484 12.135 12.484-12.135 12.485-12.135-12.485z" fill="#fff" fill-rule="nonzero"/><path d="M482.1 490.889l13.034-13.409 13.034 13.409-13.034 13.411-13.034-13.411z" fill="#fbfbfb" fill-rule="nonzero"/><path d="M481.201 539.562l13.933-14.334 13.932 14.334-13.932 14.334-13.933-14.334z" fill="#cdcdcd" fill-rule="nonzero"/><path d="M480.302 588.235l14.832-15.259 14.832 15.259-14.832 15.259-14.832-15.259z" fill="#dedede" fill-rule="nonzero"/><path d="M479.403 636.908l15.731-16.184 15.731 16.184-15.731 16.184-15.731-16.184zm-.899 48.673l16.63-17.109 16.63 17.109-16.63 17.108-16.63-17.108z" fill="#fff" fill-rule="nonzero"/><path d="M477.605 734.254l17.529-18.034 17.529 18.034-17.529 18.033-17.529-18.033z" fill="#e1e1e1" fill-rule="nonzero"/><path d="M476.706 782.926l18.428-18.958 18.427 18.958-18.427 18.959-18.428-18.959z" fill="#fff" fill-rule="nonzero"/><path d="M475.808 831.599l19.326-19.883 19.327 19.883-19.327 19.883-19.326-19.883z" fill="#f9f9f9" fill-rule="nonzero"/><path d="M474.909 880.272l20.225-20.807 20.226 20.807-20.226 20.808-20.225-20.808z" fill="#bebebe" fill-rule="nonzero"/><path d="M474.01 928.945l21.124-21.732 21.125 21.732-21.125 21.732-21.124-21.732z" fill="#c3c3c3" fill-rule="nonzero"/><path d="M473.111 977.618l22.023-22.657 22.024 22.657-22.024 22.662-22.023-22.662z" fill="#f4f4f4" fill-rule="nonzero"/><path d="M538.4 4.161L542.445 0l4.045 4.161-4.045 4.161-4.045-4.161z" fill="#dbdbdb" fill-rule="nonzero"/><path d="M537.501 52.833l4.944-5.086 4.944 5.086-4.944 5.088-4.944-5.088z" fill="#afafaf" fill-rule="nonzero"/><path d="M536.602 101.506l5.843-6.01 5.843 6.01-5.843 6.011-5.843-6.011z" fill="#fff" fill-rule="nonzero"/><path d="M535.703 150.179l6.742-6.936 6.742 6.936-6.742 6.936-6.742-6.936z" fill="#e2e2e2" fill-rule="nonzero"/><path d="M534.805 198.852l7.64-7.861 7.641 7.861-7.641 7.861-7.64-7.861z" fill="#afafaf" fill-rule="nonzero"/><path d="M533.906 247.525l8.539-8.786 8.54 8.786-8.54 8.785-8.539-8.785z" fill="#b8b8b8" fill-rule="nonzero"/><path d="M533.007 296.198l9.438-9.71 9.439 9.71-9.439 9.71-9.438-9.71z" fill="#c6c6c6" fill-rule="nonzero"/><path d="M532.108 344.871l10.337-10.635 10.338 10.635-10.338 10.635-10.337-10.635z" fill="#fff" fill-rule="nonzero"/><path d="M531.209 393.543l11.236-11.559 11.237 11.559-11.237 11.56-11.236-11.56z" fill="#bcbcbc" fill-rule="nonzero"/><path d="M530.31 442.216l12.135-12.484 12.136 12.484-12.136 12.485-12.135-12.485z" fill="#f3f3f3" fill-rule="nonzero"/><path d="M529.411 490.889l13.034-13.409 13.035 13.409-13.035 13.411-13.034-13.411z" fill="#fefefe" fill-rule="nonzero"/><path d="M528.512 539.562l13.933-14.334 13.933 14.334-13.933 14.334-13.933-14.334z" fill="#afafaf" fill-rule="nonzero"/><path d="M527.613 588.235l14.832-15.259 14.832 15.259-14.832 15.259-14.832-15.259z" fill="#fff" fill-rule="nonzero"/><path d="M526.714 636.908l15.731-16.184 15.731 16.184-15.731 16.184-15.731-16.184z" fill="#cacaca" fill-rule="nonzero"/><path d="M525.815 685.581l16.63-17.109 16.63 17.109-16.63 17.108-16.63-17.108z" fill="#bababa" fill-rule="nonzero"/><path d="M524.917 734.254l17.528-18.034 17.529 18.034-17.529 18.033-17.528-18.033z" fill="#c1c1c1" fill-rule="nonzero"/><path d="M524.018 782.926l18.427-18.958 18.428 18.958-18.428 18.959-18.427-18.959z" fill="#fcfcfc" fill-rule="nonzero"/><path d="M523.119 831.599l19.326-19.883 19.327 19.883-19.327 19.883-19.326-19.883z" fill="#ccc" fill-rule="nonzero"/><path d="M522.22 880.272l20.225-20.807 20.226 20.807-20.226 20.808-20.225-20.808z" fill="#fff" fill-rule="nonzero"/><path d="M521.321 928.945l21.124-21.732 21.125 21.732-21.125 21.732-21.124-21.732z" fill="#d6d6d6" fill-rule="nonzero"/><path d="M520.422 977.618l22.023-22.657 22.024 22.657-22.024 22.662-22.023-22.662z" fill="#fff" fill-rule="nonzero"/><path d="M585.711 4.161L589.757 0l4.045 4.161-4.045 4.161-4.046-4.161z" fill="#d7d7d7" fill-rule="nonzero"/><path d="M584.812 52.833l4.945-5.086 4.944 5.086-4.944 5.088-4.945-5.088z" fill="#f6f6f6" fill-rule="nonzero"/><path d="M583.914 101.506l5.843-6.01 5.842 6.01-5.842 6.011-5.843-6.011z" fill="#b2b2b2" fill-rule="nonzero"/><path d="M583.015 150.179l6.742-6.936 6.741 6.936-6.741 6.936-6.742-6.936zm-.899 48.673l7.641-7.861 7.64 7.861-7.64 7.861-7.641-7.861zm-.899 48.673l8.54-8.786 8.539 8.786-8.539 8.785-8.54-8.785z" fill="#fff" fill-rule="nonzero"/><path d="M580.318 296.198l9.439-9.71 9.438 9.71-9.438 9.71-9.439-9.71z" fill="#c6c6c6" fill-rule="nonzero"/><path d="M579.419 344.871l10.338-10.635 10.337 10.635-10.337 10.635-10.338-10.635z" fill="#fff" fill-rule="nonzero"/><path d="M578.52 393.543l11.237-11.559 11.236 11.559-11.236 11.56-11.237-11.56z" fill="#c3c3c3" fill-rule="nonzero"/><path d="M577.621 442.216l12.136-12.484 12.135 12.484-12.135 12.485-12.136-12.485z" fill="#e8e8e8" fill-rule="nonzero"/><path d="M576.722 490.889l13.035-13.409 13.034 13.409-13.034 13.411-13.035-13.411z" fill="#d3d3d3" fill-rule="nonzero"/><path d="M575.823 539.562l13.934-14.334 13.933 14.334-13.933 14.334-13.934-14.334z" fill="#c1c1c1" fill-rule="nonzero"/><path d="M574.924 588.235l14.833-15.259 14.832 15.259-14.832 15.259-14.833-15.259zm-.898 48.673l15.731-16.184 15.73 16.184-15.73 16.184-15.731-16.184z" fill="#fff" fill-rule="nonzero"/><path d="M573.127 685.581l16.63-17.109 16.629 17.109-16.629 17.108-16.63-17.108z" fill="#d5d5d5" fill-rule="nonzero"/><path d="M572.228 734.254l17.529-18.034 17.528 18.034-17.528 18.033-17.529-18.033z" fill="#cecece" fill-rule="nonzero"/><path d="M571.329 782.926l18.428-18.958 18.427 18.958-18.427 18.959-18.428-18.959z" fill="#e4e4e4" fill-rule="nonzero"/><path d="M570.43 831.599l19.327-19.883 19.326 19.883-19.326 19.883-19.327-19.883z" fill="#e8e8e8" fill-rule="nonzero"/><path d="M569.531 880.272l20.226-20.807 20.225 20.807-20.225 20.808-20.226-20.808z" fill="#fff" fill-rule="nonzero"/><path d="M568.632 928.945l21.125-21.732 21.124 21.732-21.124 21.732-21.125-21.732z" fill="#f7f7f7" fill-rule="nonzero"/><path d="M567.733 977.618l22.024-22.657 22.023 22.657-22.023 22.662-22.024-22.662z" fill="#cdcdcd" fill-rule="nonzero"/><path d="M633.023 4.161L637.068 0l4.045 4.161-4.045 4.161-4.045-4.161z" fill="#b8b8b8" fill-rule="nonzero"/><path d="M632.124 52.833l4.944-5.086 4.944 5.086-4.944 5.088-4.944-5.088z" fill="#e8e8e8" fill-rule="nonzero"/><path d="M631.225 101.506l5.843-6.01 5.843 6.01-5.843 6.011-5.843-6.011z" fill="#d0d0d0" fill-rule="nonzero"/><path d="M630.326 150.179l6.742-6.936 6.742 6.936-6.742 6.936-6.742-6.936z" fill="#fff" fill-rule="nonzero"/><path d="M629.427 198.852l7.641-7.861 7.64 7.861-7.64 7.861-7.641-7.861z" fill="#d9d9d9" fill-rule="nonzero"/><path d="M628.528 247.525l8.54-8.786 8.539 8.786-8.539 8.785-8.54-8.785z" fill="#b6b6b6" fill-rule="nonzero"/><path d="M627.629 296.198l9.439-9.71 9.438 9.71-9.438 9.71-9.439-9.71zm-.899 48.673l10.338-10.635 10.337 10.635-10.337 10.635-10.338-10.635z" fill="#fff" fill-rule="nonzero"/><path d="M625.831 393.543l11.237-11.559 11.236 11.559-11.236 11.56-11.237-11.56z" fill="#fcfcfc" fill-rule="nonzero"/><path d="M624.932 442.216l12.136-12.484 12.135 12.484-12.135 12.485-12.136-12.485z" fill="#dfdfdf" fill-rule="nonzero"/><path d="M624.033 490.889l13.035-13.409 13.034 13.409-13.034 13.411-13.035-13.411z" fill="#e7e7e7" fill-rule="nonzero"/><path d="M623.135 539.562l13.933-14.334 13.933 14.334-13.933 14.334-13.933-14.334z" fill="#dfdfdf" fill-rule="nonzero"/><path d="M622.236 588.235l14.832-15.259 14.832 15.259-14.832 15.259-14.832-15.259z" fill="#fff" fill-rule="nonzero"/><path d="M621.337 636.908l15.731-16.184 15.731 16.184-15.731 16.184-15.731-16.184z" fill="#b2b2b2" fill-rule="nonzero"/><path d="M620.438 685.581l16.63-17.109 16.63 17.109-16.63 17.108-16.63-17.108z" fill="#fff" fill-rule="nonzero"/><path d="M619.539 734.254l17.529-18.034 17.528 18.034-17.528 18.033-17.529-18.033z" fill="#bcbcbc" fill-rule="nonzero"/><path d="M618.64 782.926l18.428-18.958 18.427 18.958-18.427 18.959-18.428-18.959z" fill="#cacaca" fill-rule="nonzero"/><path d="M617.741 831.599l19.327-19.883 19.326 19.883-19.326 19.883-19.327-19.883z" fill="#fff" fill-rule="nonzero"/><path d="M616.842 880.272l20.226-20.807 20.225 20.807-20.225 20.808-20.226-20.808z" fill="#f6f6f6" fill-rule="nonzero"/><path d="M615.943 928.945l21.125-21.732 21.124 21.732-21.124 21.732-21.125-21.732z" fill="#f3f3f3" fill-rule="nonzero"/><path d="M615.044 977.618l22.024-22.657 22.023 22.657-22.023 22.662-22.024-22.662z" fill="#fff" fill-rule="nonzero"/><path d="M680.334 4.161L684.379 0l4.045 4.161-4.045 4.161-4.045-4.161z" fill="#dedede" fill-rule="nonzero"/><path d="M679.435 52.833l4.944-5.086 4.944 5.086-4.944 5.088-4.944-5.088z" fill="#fff" fill-rule="nonzero"/><path d="M678.536 101.506l5.843-6.01 5.843 6.01-5.843 6.011-5.843-6.011z" fill="#b4b4b4" fill-rule="nonzero"/><path d="M677.637 150.179l6.742-6.936 6.742 6.936-6.742 6.936-6.742-6.936z" fill="#efefef" fill-rule="nonzero"/><path d="M676.738 198.852l7.641-7.861 7.641 7.861-7.641 7.861-7.641-7.861z" fill="#f4f4f4" fill-rule="nonzero"/><path d="M675.839 247.525l8.54-8.786 8.54 8.786-8.54 8.785-8.54-8.785z" fill="#dfdfdf" fill-rule="nonzero"/><path d="M674.94 296.198l9.439-9.71 9.438 9.71-9.438 9.71-9.439-9.71z" fill="#c8c8c8" fill-rule="nonzero"/><path d="M674.041 344.871l10.338-10.635 10.337 10.635-10.337 10.635-10.338-10.635z" fill="#fcfcfc" fill-rule="nonzero"/><path d="M673.142 393.543l11.237-11.559 11.236 11.559-11.236 11.56-11.237-11.56z" fill="#fff" fill-rule="nonzero"/><path d="M672.244 442.216l12.135-12.484 12.135 12.484-12.135 12.485-12.135-12.485z" fill="#aeaeae" fill-rule="nonzero"/><path d="M671.345 490.889l13.034-13.409 13.034 13.409-13.034 13.411-13.034-13.411z" fill="#d3d3d3" fill-rule="nonzero"/><path d="M670.446 539.562l13.933-14.334 13.933 14.334-13.933 14.334-13.933-14.334z" fill="#d9d9d9" fill-rule="nonzero"/><path d="M669.547 588.235l14.832-15.259 14.832 15.259-14.832 15.259-14.832-15.259z" fill="#d7d7d7" fill-rule="nonzero"/><path d="M668.648 636.908l15.731-16.184 15.731 16.184-15.731 16.184-15.731-16.184z" fill="#fbfbfb" fill-rule="nonzero"/><path d="M667.749 685.581l16.63-17.109 16.63 17.109-16.63 17.108-16.63-17.108z" fill="#b6b6b6" fill-rule="nonzero"/><path d="M666.85 734.254l17.529-18.034 17.529 18.034-17.529 18.033-17.529-18.033z" fill="#e8e8e8" fill-rule="nonzero"/><path d="M665.951 782.926l18.428-18.958 18.428 18.958-18.428 18.959-18.428-18.959z" fill="#d6d6d6" fill-rule="nonzero"/><path d="M665.052 831.599l19.327-19.883 19.326 19.883-19.326 19.883-19.327-19.883z" fill="#acacac" fill-rule="nonzero"/><path d="M664.153 880.272l20.226-20.807 20.225 20.807-20.225 20.808-20.226-20.808z" fill="#fdfdfd" fill-rule="nonzero"/><path d="M663.254 928.945l21.125-21.732 21.124 21.732-21.124 21.732-21.125-21.732z" fill="#dedede" fill-rule="nonzero"/><path d="M662.356 977.618l22.023-22.657 22.023 22.657-22.023 22.662-22.023-22.662z" fill="#fff" fill-rule="nonzero"/><path d="M727.645 4.161L731.69 0l4.045 4.161-4.045 4.161-4.045-4.161z" fill="#b6b6b6" fill-rule="nonzero"/><path d="M726.746 52.833l4.944-5.086 4.944 5.086-4.944 5.088-4.944-5.088zm-.899 48.673l5.843-6.01 5.843 6.01-5.843 6.011-5.843-6.011z" fill="#fff" fill-rule="nonzero"/><path d="M724.948 150.179l6.742-6.936 6.742 6.936-6.742 6.936-6.742-6.936z" fill="#dedede" fill-rule="nonzero"/><path d="M724.049 198.852l7.641-7.861 7.641 7.861-7.641 7.861-7.641-7.861z" fill="#ebebeb" fill-rule="nonzero"/><path d="M723.15 247.525l8.54-8.786 8.54 8.786-8.54 8.785-8.54-8.785z" fill="#fff" fill-rule="nonzero"/><path d="M722.251 296.198l9.439-9.71 9.439 9.71-9.439 9.71-9.439-9.71z" fill="#e3e3e3" fill-rule="nonzero"/><path d="M721.353 344.871l10.337-10.635 10.338 10.635-10.338 10.635-10.337-10.635z" fill="#fff" fill-rule="nonzero"/><path d="M720.454 393.543l11.236-11.559 11.236 11.559-11.236 11.56-11.236-11.56z" fill="#dfdfdf" fill-rule="nonzero"/><path d="M719.555 442.216l12.135-12.484 12.135 12.484-12.135 12.485-12.135-12.485z" fill="#dadada" fill-rule="nonzero"/><path d="M718.656 490.889l13.034-13.409 13.034 13.409L731.69 504.3l-13.034-13.411zm-.899 48.673l13.933-14.334 13.933 14.334-13.933 14.334-13.933-14.334z" fill="#fff" fill-rule="nonzero"/><path d="M716.858 588.235l14.832-15.259 14.832 15.259-14.832 15.259-14.832-15.259z" fill="#d8d8d8" fill-rule="nonzero"/><path d="M715.959 636.908l15.731-16.184 15.731 16.184-15.731 16.184-15.731-16.184z" fill="#f9f9f9" fill-rule="nonzero"/><path d="M715.06 685.581l16.63-17.109 16.63 17.109-16.63 17.108-16.63-17.108zm-.899 48.673l17.529-18.034 17.529 18.034-17.529 18.033-17.529-18.033z" fill="#cacaca" fill-rule="nonzero"/><path d="M713.262 782.926l18.428-18.958 18.428 18.958-18.428 18.959-18.428-18.959z" fill="#e1e1e1" fill-rule="nonzero"/><path d="M712.363 831.599l19.327-19.883 19.327 19.883-19.327 19.883-19.327-19.883z" fill="#d7d7d7" fill-rule="nonzero"/><path d="M711.465 880.272l20.225-20.807 20.226 20.807-20.226 20.808-20.225-20.808z" fill="#fff" fill-rule="nonzero"/><path d="M710.566 928.945l21.124-21.732 21.124 21.732-21.124 21.732-21.124-21.732z" fill="#e7e7e7" fill-rule="nonzero"/><path d="M709.667 977.618l22.023-22.657 22.023 22.657-22.023 22.662-22.023-22.662z" fill="#ccc" fill-rule="nonzero"/><path d="M774.956 4.161L779.001 0l4.045 4.161-4.045 4.161-4.045-4.161z" fill="#fff" fill-rule="nonzero"/><path d="M774.057 52.833l4.944-5.086 4.944 5.086-4.944 5.088-4.944-5.088z" fill="#eaeaea" fill-rule="nonzero"/><path d="M773.158 101.506l5.843-6.01 5.843 6.01-5.843 6.011-5.843-6.011z" fill="#f2f2f2" fill-rule="nonzero"/><path d="M772.259 150.179l6.742-6.936 6.742 6.936-6.742 6.936-6.742-6.936z" fill="#fff" fill-rule="nonzero"/><path d="M771.36 198.852l7.641-7.861 7.641 7.861-7.641 7.861-7.641-7.861z" fill="#ededed" fill-rule="nonzero"/><path d="M770.462 247.525l8.539-8.786 8.54 8.786-8.54 8.785-8.539-8.785z" fill="#eaeaea" fill-rule="nonzero"/><path d="M769.563 296.198l9.438-9.71 9.439 9.71-9.439 9.71-9.438-9.71z" fill="#aeaeae" fill-rule="nonzero"/><path d="M768.664 344.871l10.337-10.635 10.338 10.635-10.338 10.635-10.337-10.635zm-.899 48.672l11.236-11.559 11.237 11.559-11.237 11.56-11.236-11.56z" fill="#fff" fill-rule="nonzero"/><path d="M766.866 442.216l12.135-12.484 12.136 12.484-12.136 12.485-12.135-12.485z" fill="#b2b2b2" fill-rule="nonzero"/><path d="M765.967 490.889l13.034-13.409 13.034 13.409-13.034 13.411-13.034-13.411z" fill="#fff" fill-rule="nonzero"/><path d="M765.068 539.562l13.933-14.334 13.933 14.334-13.933 14.334-13.933-14.334z" fill="#ececec" fill-rule="nonzero"/><path d="M764.169 588.235l14.832-15.259 14.832 15.259-14.832 15.259-14.832-15.259z" fill="#fefefe" fill-rule="nonzero"/><path d="M763.27 636.908l15.731-16.184 15.731 16.184-15.731 16.184-15.731-16.184z" fill="#fff" fill-rule="nonzero"/><path d="M762.371 685.581l16.63-17.109 16.63 17.109-16.63 17.108-16.63-17.108z" fill="#c1c1c1" fill-rule="nonzero"/><path d="M761.472 734.254l17.529-18.034 17.529 18.034-17.529 18.033-17.529-18.033z" fill="#c6c6c6" fill-rule="nonzero"/><path d="M760.574 782.926l18.427-18.958 18.428 18.958-18.428 18.959-18.427-18.959z" fill="#acacac" fill-rule="nonzero"/><path d="M759.675 831.599l19.326-19.883 19.327 19.883-19.327 19.883-19.326-19.883z" fill="#eee" fill-rule="nonzero"/><path d="M758.776 880.272l20.225-20.807 20.226 20.807-20.226 20.808-20.225-20.808z" fill="#d6d6d6" fill-rule="nonzero"/><path d="M757.877 928.945l21.124-21.732 21.125 21.732-21.125 21.732-21.124-21.732z" fill="#b9b9b9" fill-rule="nonzero"/><path d="M756.978 977.618l22.023-22.657 22.024 22.657-22.024 22.662-22.023-22.662z" fill="#eee" fill-rule="nonzero"/><path d="M822.267 4.161L826.312 0l4.045 4.161-4.045 4.161-4.045-4.161zm-.899 48.672l4.944-5.086 4.944 5.086-4.944 5.088-4.944-5.088zm-.899 48.673l5.843-6.01 5.843 6.01-5.843 6.011-5.843-6.011z" fill="#fff" fill-rule="nonzero"/><path d="M819.571 150.179l6.741-6.936 6.742 6.936-6.742 6.936-6.741-6.936z" fill="#f4f4f4" fill-rule="nonzero"/><path d="M818.672 198.852l7.64-7.861 7.641 7.861-7.641 7.861-7.64-7.861z" fill="#fff" fill-rule="nonzero"/><path d="M817.773 247.525l8.539-8.786 8.54 8.786-8.54 8.785-8.539-8.785z" fill="#ccc" fill-rule="nonzero"/><path d="M816.874 296.198l9.438-9.71 9.439 9.71-9.439 9.71-9.438-9.71z" fill="#d5d5d5" fill-rule="nonzero"/><path d="M815.975 344.871l10.337-10.635 10.338 10.635-10.338 10.635-10.337-10.635z" fill="#fff" fill-rule="nonzero"/><path d="M815.076 393.543l11.236-11.559 11.237 11.559-11.237 11.56-11.236-11.56z" fill="#f7f7f7" fill-rule="nonzero"/><path d="M814.177 442.216l12.135-12.484 12.136 12.484-12.136 12.485-12.135-12.485z" fill="#e0e0e0" fill-rule="nonzero"/><path d="M813.278 490.889l13.034-13.409 13.035 13.409-13.035 13.411-13.034-13.411z" fill="#dbdbdb" fill-rule="nonzero"/><path d="M812.379 539.562l13.933-14.334 13.934 14.334-13.934 14.334-13.933-14.334z" fill="#efefef" fill-rule="nonzero"/><path d="M811.48 588.235l14.832-15.259 14.832 15.259-14.832 15.259-14.832-15.259z" fill="#ededed" fill-rule="nonzero"/><path d="M810.581 636.908l15.731-16.184 15.731 16.184-15.731 16.184-15.731-16.184z" fill="#c5c5c5" fill-rule="nonzero"/><path d="M809.683 685.581l16.629-17.109 16.63 17.109-16.63 17.108-16.629-17.108z" fill="#afafaf" fill-rule="nonzero"/><path d="M808.784 734.254l17.528-18.034 17.529 18.034-17.529 18.033-17.528-18.033zm-.899 48.672l18.427-18.958 18.428 18.958-18.428 18.959-18.427-18.959z" fill="#dcdcdc" fill-rule="nonzero"/><path d="M806.986 831.599l19.326-19.883 19.327 19.883-19.327 19.883-19.326-19.883z" fill="#b2b2b2" fill-rule="nonzero"/><path d="M806.087 880.272l20.225-20.807 20.226 20.807-20.226 20.808-20.225-20.808z" fill="#fff" fill-rule="nonzero"/><path d="M805.188 928.945l21.124-21.732 21.125 21.732-21.125 21.732-21.124-21.732z" fill="#f3f3f3" fill-rule="nonzero"/><path d="M804.289 977.618l22.023-22.657 22.024 22.657-22.024 22.662-22.023-22.662z" fill="#ececec" fill-rule="nonzero"/><path d="M869.578 4.161L873.624 0l4.045 4.161-4.045 4.161-4.046-4.161zm-.898 48.672l4.944-5.086 4.944 5.086-4.944 5.088-4.944-5.088zm-.899 48.673l5.843-6.01 5.842 6.01-5.842 6.011-5.843-6.011zm-.899 48.673l6.742-6.936 6.741 6.936-6.741 6.936-6.742-6.936z" fill="#fff" fill-rule="nonzero"/><path d="M865.983 198.852l7.641-7.861 7.64 7.861-7.64 7.861-7.641-7.861z" fill="#cfcfcf" fill-rule="nonzero"/><path d="M865.084 247.525l8.54-8.786 8.539 8.786-8.539 8.785-8.54-8.785z" fill="#fff" fill-rule="nonzero"/><path d="M864.185 296.198l9.439-9.71 9.438 9.71-9.438 9.71-9.439-9.71z" fill="#e5e5e5" fill-rule="nonzero"/><path d="M863.286 344.871l10.338-10.635 10.337 10.635-10.337 10.635-10.338-10.635z" fill="#e9e9e9" fill-rule="nonzero"/><path d="M862.387 393.543l11.237-11.559 11.236 11.559-11.236 11.56-11.237-11.56z" fill="#bebebe" fill-rule="nonzero"/><path d="M861.488 442.216l12.136-12.484 12.135 12.484-12.135 12.485-12.136-12.485z" fill="#f9f9f9" fill-rule="nonzero"/><path d="M860.589 490.889l13.035-13.409 13.034 13.409-13.034 13.411-13.035-13.411z" fill="#b8b8b8" fill-rule="nonzero"/><path d="M859.69 539.562l13.934-14.334 13.933 14.334-13.933 14.334-13.934-14.334z" fill="#ededed" fill-rule="nonzero"/><path d="M858.792 588.235l14.832-15.259 14.832 15.259-14.832 15.259-14.832-15.259z" fill="#fff" fill-rule="nonzero"/><path d="M857.893 636.908l15.731-16.184 15.731 16.184-15.731 16.184-15.731-16.184z" fill="#b4b4b4" fill-rule="nonzero"/><path d="M856.994 685.581l16.63-17.109 16.629 17.109-16.629 17.108-16.63-17.108z" fill="#fff" fill-rule="nonzero"/><path d="M856.095 734.254l17.529-18.034 17.528 18.034-17.528 18.033-17.529-18.033z" fill="#c9c9c9" fill-rule="nonzero"/><path d="M855.196 782.926l18.428-18.958 18.427 18.958-18.427 18.959-18.428-18.959z" fill="#fafafa" fill-rule="nonzero"/><path d="M854.297 831.599l19.327-19.883 19.326 19.883-19.326 19.883-19.327-19.883z" fill="#bababa" fill-rule="nonzero"/><path d="M853.398 880.272l20.226-20.807 20.225 20.807-20.225 20.808-20.226-20.808z" fill="#fff" fill-rule="nonzero"/><path d="M852.499 928.945l21.125-21.732 21.124 21.732-21.124 21.732-21.125-21.732z" fill="#dfdfdf" fill-rule="nonzero"/><path d="M851.6 977.618l22.024-22.657 22.023 22.657-22.023 22.662-22.024-22.662z" fill="#fff" fill-rule="nonzero"/><path d="M916.89 4.161L920.935 0l4.045 4.161-4.045 4.161-4.045-4.161z" fill="#dbdbdb" fill-rule="nonzero"/><path d="M915.991 52.833l4.944-5.086 4.944 5.086-4.944 5.088-4.944-5.088z" fill="#fff" fill-rule="nonzero"/><path d="M915.092 101.506l5.843-6.01 5.843 6.01-5.843 6.011-5.843-6.011z" fill="#e2e2e2" fill-rule="nonzero"/><path d="M914.193 150.179l6.742-6.936 6.742 6.936-6.742 6.936-6.742-6.936z" fill="#c3c3c3" fill-rule="nonzero"/><path d="M913.294 198.852l7.641-7.861 7.64 7.861-7.64 7.861-7.641-7.861z" fill="#adadad" fill-rule="nonzero"/><path d="M912.395 247.525l8.54-8.786 8.539 8.786-8.539 8.785-8.54-8.785z" fill="#f6f6f6" fill-rule="nonzero"/><path d="M911.496 296.198l9.439-9.71 9.438 9.71-9.438 9.71-9.439-9.71z" fill="silver" fill-rule="nonzero"/><path d="M910.597 344.871l10.338-10.635 10.337 10.635-10.337 10.635-10.338-10.635z" fill="#e1e1e1" fill-rule="nonzero"/><path d="M909.698 393.543l11.237-11.559 11.236 11.559-11.236 11.56-11.237-11.56z" fill="#ebebeb" fill-rule="nonzero"/><path d="M908.799 442.216l12.136-12.484 12.135 12.484-12.135 12.485-12.136-12.485z" fill="#f6f6f6" fill-rule="nonzero"/><path d="M907.901 490.889l13.034-13.409 13.034 13.409-13.034 13.411-13.034-13.411z" fill="#fff" fill-rule="nonzero"/><path d="M907.002 539.562l13.933-14.334 13.933 14.334-13.933 14.334-13.933-14.334z" fill="#e6e6e6" fill-rule="nonzero"/><path d="M906.103 588.235l14.832-15.259 14.832 15.259-14.832 15.259-14.832-15.259z" fill="#b6b6b6" fill-rule="nonzero"/><path d="M905.204 636.908l15.731-16.184 15.731 16.184-15.731 16.184-15.731-16.184z" fill="#e3e3e3" fill-rule="nonzero"/><path d="M904.305 685.581l16.63-17.109 16.63 17.109-16.63 17.108-16.63-17.108z" fill="#eaeaea" fill-rule="nonzero"/><path d="M903.406 734.254l17.529-18.034 17.529 18.034-17.529 18.033-17.529-18.033z" fill="#fff" fill-rule="nonzero"/><path d="M902.507 782.926l18.428-18.958 18.427 18.958-18.427 18.959-18.428-18.959z" fill="#c7c7c7" fill-rule="nonzero"/><path d="M901.608 831.599l19.327-19.883 19.326 19.883-19.326 19.883-19.327-19.883z" fill="#d5d5d5" fill-rule="nonzero"/><path d="M900.709 880.272l20.226-20.807 20.225 20.807-20.225 20.808-20.226-20.808z" fill="#d7d7d7" fill-rule="nonzero"/><path d="M899.81 928.945l21.125-21.732 21.124 21.732-21.124 21.732-21.125-21.732z" fill="#d2d2d2" fill-rule="nonzero"/><path d="M898.911 977.618l22.024-22.657 22.023 22.657-22.023 22.662-22.024-22.662z" fill="#b6b6b6" fill-rule="nonzero"/><path d="M964.201 4.161L968.246 0l4.05 4.161-4.05 4.161-4.045-4.161z" fill="#adadad" fill-rule="nonzero"/><path d="M963.302 52.833l4.944-5.086 4.939 5.086-4.939 5.088-4.944-5.088z" fill="#cacaca" fill-rule="nonzero"/><path d="M962.403 101.506l5.843-6.01 5.838 6.01-5.838 6.011-5.843-6.011z" fill="#ececec" fill-rule="nonzero"/><path d="M961.504 150.179l6.742-6.936 6.746 6.936-6.746 6.936-6.742-6.936z" fill="#c7c7c7" fill-rule="nonzero"/><path d="M960.605 198.852l7.641-7.861 7.645 7.861-7.645 7.861-7.641-7.861z" fill="#f9f9f9" fill-rule="nonzero"/><path d="M959.706 247.525l8.54-8.786 8.544 8.786-8.544 8.785-8.54-8.785z" fill="#ededed" fill-rule="nonzero"/><path d="M958.807 296.198l9.439-9.71 9.434 9.71-9.434 9.71-9.439-9.71z" fill="#dedede" fill-rule="nonzero"/><path d="M957.908 344.871l10.338-10.635 10.333 10.635-10.333 10.635-10.338-10.635z" fill="#fff" fill-rule="nonzero"/><path d="M957.01 393.543l11.236-11.559 11.241 11.559-11.241 11.56-11.236-11.56z" fill="#aeaeae" fill-rule="nonzero"/><path d="M956.111 442.216l12.135-12.484 12.14 12.484-12.14 12.485-12.135-12.485z" fill="#b8b8b8" fill-rule="nonzero"/><path d="M955.212 490.889l13.034-13.409 13.039 13.409-13.039 13.411-13.034-13.411z" fill="#dfdfdf" fill-rule="nonzero"/><path d="M954.313 539.562l13.933-14.334 13.928 14.334-13.928 14.334-13.933-14.334z" fill="#cdcdcd" fill-rule="nonzero"/><path d="M953.414 588.235l14.832-15.259 14.827 15.259-14.827 15.259-14.832-15.259z" fill="#cfcfcf" fill-rule="nonzero"/><path d="M952.515 636.908l15.731-16.184 15.736 16.184-15.736 16.184-15.731-16.184z" fill="#c8c8c8" fill-rule="nonzero"/><path d="M951.616 685.581l16.63-17.109 16.635 17.109-16.635 17.108-16.63-17.108z" fill="#ededed" fill-rule="nonzero"/><path d="M950.717 734.254l17.529-18.034 17.533 18.034-17.533 18.033-17.529-18.033z" fill="#fff" fill-rule="nonzero"/><path d="M949.818 782.926l18.428-18.958 18.423 18.958-18.423 18.959-18.428-18.959z" fill="#c7c7c7" fill-rule="nonzero"/><path d="M948.919 831.599l19.327-19.883 19.322 19.883-19.322 19.883-19.327-19.883z" fill="#fff" fill-rule="nonzero"/><path d="M948.02 880.272l20.226-20.807 20.23 20.807-20.23 20.808-20.226-20.808z" fill="#c7c7c7" fill-rule="nonzero"/><path d="M947.121 928.945l21.125-21.732 21.129 21.732-21.129 21.732-21.125-21.732z" fill="#bcbcbc" fill-rule="nonzero"/><path d="M946.223 977.618l22.023-22.657 22.028 22.657-22.028 22.662-22.023-22.662z" fill="#b0b0b0" fill-rule="nonzero"/></svg>
