<svg viewBox="0 0 35 41" xmlns="http://www.w3.org/2000/svg" fill-rule="evenodd" clip-rule="evenodd" stroke-linejoin="round" stroke-miterlimit="1.414"><g fill="#626365" fill-rule="nonzero"><path d="M34.874 11.123v-.032a52.787 52.787 0 01-.04-1.273C34.802 7.56 33 5.686 30.742 5.558c-4.709-.256-8.36-1.794-11.476-4.837l-.024-.024a2.626 2.626 0 00-3.563 0l-.032.024C12.532 3.764 8.888 5.302 4.171 5.566A4.34 4.34 0 00.079 9.818c-.008.465-.016.881-.04 1.273v.072c-.088 4.805-.208 10.786 1.794 16.216C2.93 30.365 4.604 32.96 6.79 35.09c2.491 2.427 5.75 4.356 9.689 5.734.128.048.264.08.4.111.192.041.384.057.577.057.193 0 .384-.016.576-.057.137-.023.272-.063.4-.111 3.94-1.378 7.199-3.308 9.682-5.734 2.187-2.138 3.852-4.732 4.957-7.719 2.003-5.437 1.891-11.428 1.803-16.248zm-4.06 15.423c-2.114 5.726-6.423 9.657-13.173 12.012-.024.008-.048.017-.08.024a.456.456 0 01-.208 0l-.072-.024C10.523 36.204 6.206 32.272 4.1 26.546c-1.842-5.005-1.738-10.498-1.65-15.343v-.024c.016-.416.032-.849.04-1.329a1.935 1.935 0 011.818-1.89c2.667-.152 5.013-.665 7.167-1.578s4.06-2.194 5.838-3.924a.213.213 0 01.296 0c1.777 1.729 3.691 3.011 5.838 3.924 2.154.913 4.5 1.425 7.167 1.578a1.928 1.928 0 011.817 1.89c.008.48.016.921.04 1.329.089 4.861.193 10.354-1.657 15.367z"/><path d="M17.457 10.282c-5.638 0-10.218 4.58-10.218 10.218s4.58 10.218 10.218 10.218 10.218-4.58 10.218-10.218c0-5.629-4.58-10.218-10.218-10.218zm0 18.033c-4.308 0-7.815-3.507-7.815-7.815s3.507-7.815 7.815-7.815c4.309 0 7.815 3.507 7.815 7.815 0 4.309-3.506 7.815-7.815 7.815z"/><path d="M20.396 17.329l-4.749 4.749-1.29-1.29a1.195 1.195 0 00-1.698 0 1.195 1.195 0 000 1.698l2.138 2.138c.232.232.544.353.849.353.304 0 .616-.12.849-.353l5.598-5.598a1.192 1.192 0 000-1.697 1.192 1.192 0 00-1.697 0z"/></g></svg>
